<?xml version="1.0" encoding="utf-8"?>
<!-- Generator: Adobe Illustrator 21.0.2, SVG Export Plug-In . SVG Version: 6.00 Build 0)  -->
<svg version="1.1" id="Layer_1" xmlns="http://www.w3.org/2000/svg" xmlns:xlink="http://www.w3.org/1999/xlink" x="0px" y="0px"
	 width="130px" height="25.1px" viewBox="0 0 130 25.1" style="enable-background:new 0 0 130 25.1;" xml:space="preserve">
<style type="text/css">
	.st0{fill-rule:evenodd;clip-rule:evenodd;fill:#13227B;}
	.st1{fill:#13227B;}
	.st2{fill-rule:evenodd;clip-rule:evenodd;fill:#FFFFFF;}
</style>
<g>
	<path class="st0" d="M101.8,17.3v-3.4h3.3c0.8-1.4,2.1-2.8,3.9-4.1c-0.7-1-1.3-2-1.7-3.1h-5.4V2.9h5h0.1h0.1h0.1h0.1h0.1h0.1h0.1
		h0.1h0.1h0.1h0.1h0.1h0.1h0.1h0.1h0.1h0.1h0.1h0.1h0.1h0.1h0.1h0.1h0.1h0.1h0.1h0.1h0.1h0.1h0.1h0.1h0.1h0.1h0.1h0.1h0.1h0.1h0.1
		h0.1h0.1h0.1h0.1h0.1h0.1h0.1h0.1h0.1h0.1h0.1h0h1c-0.2,2.6,0.4,3.8,1.3,4.8c1.8-1.1,3.1-3,4.2-4.8c1.3,0,2.6,0,3.9,0
		c-1.6,2.8-3.4,5.4-6,7c0,0.1,0.1,0.1,0.1,0.2c2,3.4,1.7,7.5,0.5,12.1c-1.3,0-2.7,0-4,0c1.4-3.3,1.9-7.3-0.1-10
		c-1.8,1.4-3.3,3-4.3,5.1c-0.9,0-1.7,0-2.6,0l0-0.1H101.8L101.8,17.3z M101.8,11.9h0.6V8.5h-0.6V11.9z M41.3,2.9H45v14.5h-3.7V2.9
		L41.3,2.9z M101.8,2.9v3.8H95c-0.2,0.2-0.4,0.5-0.4,0.8v1h7.2v3.5h-7.2v1c0,0.5,0.4,1,0.9,1h6.3v3.4h-6.3c-2.4,0-4.4-2.5-4.4-5.5
		V6.7h-6.3v10.6h-3.8V6.7H65.2c-0.4,0-0.8,0.3-0.8,0.8v1.1H72V12h-7.6v1.7h0.1h10.1v3.7H50.6c-2.5,0-4.5-2-4.5-4.5V7.3
		c0-2.5,2-4.5,4.5-4.5h9.3v3.7h-8.9c-0.7,0-1.2,0.5-1.2,1.1v4.8c0,0.6,0.5,1.1,1.2,1.1h8.9h0.9c0-0.2-0.1-0.4-0.1-0.7V7.2
		c0-2.4,2.1-4.4,4.6-4.4H101.8z"/>
	<g>
		<path class="st1" d="M107,21.1v-0.3c0.1,0,0.1-0.1,0.2-0.1c0.1-0.1,0.2-0.2,0.3-0.4c0.1-0.2,0.1-0.4,0.1-0.6c0-0.2,0-0.4-0.1-0.5
			c-0.1-0.1-0.2-0.2-0.3-0.2c0,0-0.1,0-0.1,0v-0.3c0,0,0.1,0,0.1,0c0.2,0,0.4,0.1,0.5,0.3c0.1,0.2,0.2,0.4,0.2,0.7
			c0,0.3,0,0.5-0.1,0.8c-0.1,0.2-0.2,0.4-0.4,0.5C107.2,21.1,107.1,21.1,107,21.1z M107,18.7V19c-0.1,0-0.1,0.1-0.2,0.1
			c-0.1,0.1-0.2,0.2-0.3,0.4c-0.1,0.2-0.1,0.4-0.1,0.6c0,0.2,0,0.4,0.1,0.5c0.1,0.1,0.2,0.2,0.3,0.2c0,0,0.1,0,0.1,0v0.3
			c0,0-0.1,0-0.1,0c-0.2,0-0.4-0.1-0.5-0.3c-0.1-0.2-0.2-0.4-0.2-0.7c0-0.4,0.1-0.8,0.3-1.1C106.5,18.9,106.7,18.8,107,18.7
			L107,18.7z M102.9,21.1v-0.3c0,0,0.1,0,0.1-0.1c0.1-0.1,0.2-0.2,0.2-0.3c0.1-0.1,0.1-0.3,0.1-0.6c-0.1,0-0.2,0.1-0.4,0.1
			c0,0-0.1,0-0.1,0v-0.3l0,0c0.2,0,0.3,0,0.4,0c0.1,0,0.1,0,0.2-0.1c0-0.1,0-0.2,0-0.3c0-0.1,0-0.2-0.1-0.2
			c-0.1-0.1-0.2-0.1-0.3-0.1c-0.1,0-0.1,0-0.2,0v-0.3c0.1,0,0.1,0,0.2,0c0.2,0,0.4,0.1,0.5,0.2c0.1,0.1,0.2,0.3,0.2,0.4
			c0,0.1,0,0.3,0,0.4l-0.1,0.6c0,0.2,0,0.3,0,0.4c0,0.1,0,0.2,0,0.3h-0.3c0-0.1,0-0.2,0-0.3C103.2,20.9,103.1,21,102.9,21.1
			C103,21.1,102.9,21.1,102.9,21.1L102.9,21.1z M104,21.1l0.4-2.3h0.3l-0.1,0.4c0.1-0.2,0.3-0.3,0.4-0.4c0.1-0.1,0.2-0.1,0.3-0.1
			c0.1,0,0.3,0.1,0.3,0.2c0.1,0.1,0.1,0.2,0.1,0.4c0,0.1,0,0.2,0,0.4l-0.2,1.4h-0.3l0.2-1.5c0-0.1,0-0.3,0-0.3c0-0.1,0-0.1-0.1-0.2
			c0,0-0.1-0.1-0.2-0.1c-0.2,0-0.3,0.1-0.4,0.2c-0.1,0.1-0.2,0.4-0.3,0.8l-0.2,1.1H104z M102.9,18.7v0.3c-0.2,0.1-0.3,0.2-0.3,0.4
			l-0.3,0C102.4,19,102.6,18.8,102.9,18.7L102.9,18.7z M102.9,19.7V20c-0.1,0-0.2,0-0.3,0.1c-0.1,0-0.1,0.1-0.2,0.1
			c0,0.1-0.1,0.1-0.1,0.2c0,0.1,0,0.2,0.1,0.3c0.1,0.1,0.1,0.1,0.3,0.1c0.1,0,0.1,0,0.2,0v0.3c-0.1,0-0.2,0-0.2,0
			c-0.2,0-0.3-0.1-0.4-0.2c-0.1-0.1-0.2-0.3-0.2-0.5c0-0.1,0-0.3,0.1-0.4c0.1-0.1,0.1-0.2,0.3-0.3C102.6,19.8,102.7,19.7,102.9,19.7
			L102.9,19.7z M100.2,21.1v-0.3c0.1,0,0.1-0.1,0.2-0.1c0.1-0.1,0.2-0.2,0.2-0.4c0.1-0.2,0.1-0.4,0.1-0.6c0-0.2,0-0.4-0.1-0.5
			c-0.1-0.1-0.2-0.2-0.3-0.2c0,0-0.1,0-0.1,0v-0.3c0.1,0,0.1,0,0.2,0c0.2,0,0.3,0.1,0.4,0.2c0.1,0.2,0.2,0.4,0.2,0.7
			c0,0.3,0,0.6-0.1,0.8c-0.1,0.2-0.2,0.4-0.4,0.5C100.5,21.1,100.4,21.1,100.2,21.1L100.2,21.1z M101.7,18.3l0.1-0.5h0.3l-0.1,0.5
			H101.7L101.7,18.3z M101.3,21.1l0.4-2.3h0.3l-0.4,2.3H101.3z M100.2,18.8V19c-0.1,0-0.1,0.1-0.2,0.1c-0.1,0.1-0.2,0.3-0.2,0.5
			c0,0.2-0.1,0.3-0.1,0.4l0,0.1c0,0.2,0,0.3,0.1,0.5c0.1,0.1,0.2,0.2,0.3,0.2c0,0,0.1,0,0.1,0v0.3c0,0-0.1,0-0.1,0
			c-0.3,0-0.4-0.2-0.5-0.5l-0.1,0.4h-0.3l0.5-3.2h0.3L99.9,19C100,18.9,100.1,18.8,100.2,18.8C100.2,18.8,100.2,18.8,100.2,18.8
			L100.2,18.8z M95.2,21.1v-0.3c0.1,0,0.1-0.1,0.2-0.1c0.1-0.1,0.2-0.2,0.3-0.4c0.1-0.2,0.1-0.4,0.1-0.6c0-0.2,0-0.4-0.1-0.5
			c-0.1-0.1-0.2-0.2-0.3-0.2c0,0-0.1,0-0.1,0v-0.3c0,0,0.1,0,0.1,0c0.2,0,0.4,0.1,0.5,0.3c0.1,0.2,0.2,0.4,0.2,0.7
			c0,0.3,0,0.5-0.1,0.8c-0.1,0.2-0.2,0.4-0.4,0.5C95.5,21.1,95.4,21.1,95.2,21.1L95.2,21.1z M96.3,21.1l0.4-2.3H97l-0.1,0.4
			c0.1-0.2,0.2-0.3,0.3-0.3c0.1-0.1,0.2-0.1,0.3-0.1c0.1,0,0.2,0,0.3,0.1c0.1,0.1,0.1,0.2,0.2,0.3c0.1-0.1,0.2-0.3,0.3-0.3
			c0.1-0.1,0.2-0.1,0.3-0.1c0.1,0,0.3,0,0.3,0.1c0.1,0.1,0.1,0.2,0.1,0.4c0,0.1,0,0.2,0,0.4l-0.2,1.5h-0.3l0.3-1.5
			c0-0.1,0-0.2,0-0.3c0-0.1,0-0.1-0.1-0.2c0,0-0.1-0.1-0.2-0.1c-0.1,0-0.2,0-0.3,0.1c-0.1,0.1-0.2,0.2-0.2,0.3
			c-0.1,0.1-0.1,0.3-0.1,0.6l-0.2,1.1h-0.3l0.3-1.6c0-0.1,0-0.2,0-0.2c0-0.1,0-0.1-0.1-0.2c0,0-0.1-0.1-0.1-0.1
			c-0.1,0-0.3,0.1-0.4,0.2c-0.1,0.1-0.2,0.4-0.3,0.7l-0.2,1.1H96.3z M95.2,18.7V19c-0.1,0-0.1,0.1-0.2,0.1c-0.1,0.1-0.2,0.2-0.3,0.4
			c-0.1,0.2-0.1,0.4-0.1,0.6c0,0.2,0,0.4,0.1,0.5c0.1,0.1,0.2,0.2,0.3,0.2c0,0,0.1,0,0.1,0v0.3c0,0-0.1,0-0.1,0
			c-0.2,0-0.4-0.1-0.5-0.3c-0.1-0.2-0.2-0.4-0.2-0.7c0-0.4,0.1-0.8,0.3-1.1C94.8,18.9,95,18.8,95.2,18.7L95.2,18.7z M92.5,21.1v-0.3
			c0.1,0,0.1-0.1,0.2-0.1c0.1-0.1,0.2-0.2,0.3-0.4c0.1-0.2,0.1-0.4,0.1-0.6c0-0.2,0-0.4-0.1-0.5c-0.1-0.1-0.2-0.2-0.3-0.2
			c0,0-0.1,0-0.1,0v-0.3c0,0,0.1,0,0.1,0c0.2,0,0.4,0.1,0.5,0.3c0.1,0.2,0.2,0.4,0.2,0.7c0,0.3,0,0.5-0.1,0.8
			c-0.1,0.2-0.2,0.4-0.4,0.5C92.7,21.1,92.6,21.1,92.5,21.1L92.5,21.1z M93.5,21.1l0.5-3.2h0.3l-0.5,3.2H93.5z M92.5,18.7V19
			c-0.1,0-0.1,0.1-0.2,0.1c-0.1,0.1-0.2,0.2-0.3,0.4c-0.1,0.2-0.1,0.4-0.1,0.6c0,0.2,0,0.4,0.1,0.5c0.1,0.1,0.2,0.2,0.3,0.2
			c0,0,0.1,0,0.1,0v0.3c0,0-0.1,0-0.1,0c-0.2,0-0.4-0.1-0.5-0.3c-0.1-0.2-0.2-0.4-0.2-0.7c0-0.4,0.1-0.8,0.3-1.1
			C92,18.9,92.2,18.8,92.5,18.7L92.5,18.7z M85.9,21.1v-0.3c0.1,0,0.1-0.1,0.2-0.1c0.1-0.1,0.2-0.2,0.3-0.4c0.1-0.2,0.1-0.4,0.1-0.6
			c0-0.2,0-0.4-0.1-0.5C86.2,19.1,86.1,19,86,19c0,0-0.1,0-0.1,0v-0.3c0,0,0.1,0,0.1,0c0.2,0,0.4,0.1,0.5,0.3
			c0.1,0.2,0.2,0.4,0.2,0.7c0,0.3,0,0.5-0.1,0.8c-0.1,0.2-0.2,0.4-0.4,0.5C86.1,21.1,86,21.1,85.9,21.1L85.9,21.1z M87,20.3l0.3,0
			c0,0.2,0,0.3,0.1,0.4c0.1,0.1,0.2,0.1,0.3,0.1c0.1,0,0.2,0,0.3-0.1c0.1-0.1,0.1-0.2,0.1-0.3c0-0.1,0-0.1-0.1-0.2
			c0-0.1-0.2-0.1-0.3-0.2c-0.2-0.1-0.3-0.2-0.4-0.2c-0.1-0.1-0.1-0.1-0.1-0.2c0-0.1,0-0.2,0-0.3c0-0.2,0.1-0.4,0.2-0.5
			c0.1-0.1,0.3-0.2,0.5-0.2c0.2,0,0.4,0.1,0.5,0.2c0.1,0.1,0.2,0.3,0.2,0.5l-0.3,0c0-0.1,0-0.3-0.1-0.3C88.1,19.1,88,19,87.9,19
			c-0.1,0-0.2,0-0.2,0.1c-0.1,0.1-0.1,0.1-0.1,0.2c0,0.1,0,0.1,0.1,0.2c0,0,0.1,0.1,0.3,0.2c0.2,0.1,0.4,0.2,0.5,0.3
			c0.1,0.1,0.1,0.3,0.1,0.4c0,0.2-0.1,0.4-0.2,0.5c-0.1,0.1-0.3,0.2-0.6,0.2c-0.2,0-0.4-0.1-0.6-0.2C87,20.8,87,20.6,87,20.3
			L87,20.3L87,20.3z M91,20.2l0.3,0c-0.1,0.3-0.2,0.5-0.3,0.7c-0.1,0.1-0.3,0.2-0.5,0.2c-0.2,0-0.4-0.1-0.5-0.2
			c-0.1-0.2-0.2-0.4-0.2-0.7c0-0.3,0-0.6,0.1-0.8c0.1-0.2,0.2-0.4,0.4-0.5c0.1-0.1,0.3-0.2,0.5-0.2c0.2,0,0.3,0.1,0.5,0.2
			c0.1,0.1,0.2,0.3,0.2,0.6l-0.3,0c0-0.2,0-0.3-0.1-0.4C91,19.1,90.9,19,90.8,19c-0.1,0-0.2,0-0.3,0.1c-0.1,0.1-0.2,0.2-0.2,0.4
			c-0.1,0.2-0.1,0.4-0.1,0.7c0,0.2,0,0.3,0.1,0.4c0.1,0.1,0.2,0.1,0.3,0.1c0.1,0,0.2,0,0.3-0.1C90.9,20.6,91,20.4,91,20.2z
			 M85.9,18.7V19c-0.1,0-0.1,0.1-0.2,0.1c-0.1,0.1-0.2,0.2-0.3,0.4c-0.1,0.2-0.1,0.4-0.1,0.6c0,0.2,0,0.4,0.1,0.5
			c0.1,0.1,0.2,0.2,0.3,0.2c0,0,0.1,0,0.1,0v0.3c0,0-0.1,0-0.1,0c-0.2,0-0.4-0.1-0.5-0.3c-0.1-0.2-0.2-0.4-0.2-0.7
			c0-0.4,0.1-0.8,0.3-1.1C85.4,18.9,85.6,18.8,85.9,18.7L85.9,18.7z M82.1,21.1v-0.3c0.1,0,0.1-0.1,0.2-0.1c0.1-0.1,0.2-0.2,0.2-0.4
			l0.3,0c-0.1,0.2-0.2,0.4-0.4,0.6C82.4,21,82.3,21.1,82.1,21.1L82.1,21.1z M82.1,20v-0.3h0.5v-0.1c0-0.2,0-0.4-0.1-0.5
			c-0.1-0.1-0.2-0.2-0.3-0.2c0,0-0.1,0-0.1,0v-0.3c0,0,0.1,0,0.1,0c0.2,0,0.4,0.1,0.5,0.3c0.1,0.2,0.2,0.4,0.2,0.7
			c0,0.1,0,0.2,0,0.4H82.1L82.1,20z M84.1,21.1l0.5-3.2H85l-0.5,3.2H84.1z M82.1,18.7V19c-0.1,0-0.2,0.1-0.3,0.2
			c-0.1,0.1-0.2,0.3-0.3,0.5h0.5V20h-0.6c0,0,0,0.1,0,0.1c0,0.2,0,0.4,0.1,0.5c0.1,0.1,0.2,0.2,0.3,0.2c0.1,0,0.1,0,0.2,0v0.3
			c-0.1,0-0.1,0-0.2,0c-0.1,0-0.3,0-0.4-0.1c-0.1-0.1-0.2-0.2-0.3-0.3c-0.1-0.2-0.1-0.3-0.1-0.5c0-0.3,0.1-0.5,0.1-0.8
			c0.1-0.2,0.2-0.4,0.4-0.5C81.9,18.8,82,18.7,82.1,18.7L82.1,18.7z M80.1,21.1v-0.3c0.1,0,0.2-0.1,0.3-0.3c0.2-0.3,0.2-0.6,0.2-0.9
			c0-0.2,0-0.3-0.1-0.4c-0.1-0.1-0.2-0.2-0.3-0.2c0,0-0.1,0-0.1,0v-0.3c0,0,0.1,0,0.1,0c0.2,0,0.4,0.1,0.5,0.4l0.2-1.3h0.3l-0.5,3.2
			h-0.3l0.1-0.3C80.3,20.9,80.2,21,80.1,21.1z M80.1,18.7v0.3c-0.1,0-0.1,0.1-0.2,0.1c-0.1,0.1-0.2,0.2-0.2,0.4
			c-0.1,0.2-0.1,0.4-0.1,0.5l0,0.1c0,0.2,0,0.4,0.1,0.5c0.1,0.1,0.2,0.1,0.3,0.1c0,0,0.1,0,0.1,0v0.3c-0.1,0-0.1,0-0.2,0
			c-0.2,0-0.3-0.1-0.4-0.2c-0.1-0.2-0.2-0.4-0.2-0.7c0-0.3,0-0.5,0.1-0.8c0.1-0.2,0.2-0.4,0.4-0.5C79.9,18.8,80,18.7,80.1,18.7
			L80.1,18.7z M77.1,21.1v-0.3c0.1,0,0.1-0.1,0.2-0.1c0.1-0.1,0.2-0.2,0.3-0.4c0.1-0.2,0.1-0.4,0.1-0.6c0-0.2,0-0.4-0.1-0.5
			c-0.1-0.1-0.2-0.2-0.3-0.2c0,0-0.1,0-0.1,0v-0.3c0,0,0.1,0,0.1,0c0.2,0,0.4,0.1,0.5,0.3c0.1,0.2,0.2,0.4,0.2,0.7
			c0,0.3,0,0.5-0.1,0.8c-0.1,0.2-0.2,0.4-0.4,0.5C77.4,21.1,77.3,21.1,77.1,21.1z M77.1,18.7V19c-0.1,0-0.1,0.1-0.2,0.1
			c-0.1,0.1-0.2,0.2-0.3,0.4c-0.1,0.2-0.1,0.4-0.1,0.6c0,0.2,0,0.4,0.1,0.5c0.1,0.1,0.2,0.2,0.3,0.2c0,0,0.1,0,0.1,0v0.3
			c0,0-0.1,0-0.1,0c-0.2,0-0.4-0.1-0.5-0.3c-0.1-0.2-0.2-0.4-0.2-0.7c0-0.4,0.1-0.8,0.3-1.1C76.7,18.9,76.9,18.8,77.1,18.7
			L77.1,18.7z M72.2,21.1v-0.3c0.1,0,0.1-0.1,0.2-0.1c0.1-0.1,0.2-0.2,0.2-0.4l0.3,0c-0.1,0.2-0.2,0.4-0.4,0.6
			C72.4,21,72.3,21.1,72.2,21.1L72.2,21.1z M72.2,20v-0.3h0.5v-0.1c0-0.2,0-0.4-0.1-0.5c-0.1-0.1-0.2-0.2-0.3-0.2c0,0-0.1,0-0.1,0
			v-0.3c0,0,0.1,0,0.1,0c0.2,0,0.4,0.1,0.5,0.3c0.1,0.2,0.2,0.4,0.2,0.7c0,0.1,0,0.2,0,0.4H72.2L72.2,20z M73.2,21.1l0.4-2.3h0.3
			l-0.1,0.4c0.1-0.2,0.3-0.3,0.4-0.4c0.1-0.1,0.2-0.1,0.3-0.1c0.1,0,0.3,0.1,0.3,0.2c0.1,0.1,0.1,0.2,0.1,0.4c0,0.1,0,0.2,0,0.4
			l-0.2,1.4h-0.3l0.2-1.5c0-0.1,0-0.3,0-0.3c0-0.1,0-0.1-0.1-0.2c0,0-0.1-0.1-0.2-0.1c-0.2,0-0.3,0.1-0.4,0.2
			c-0.1,0.1-0.2,0.4-0.3,0.8l-0.2,1.1H73.2L73.2,21.1z M76,20.8l-0.1,0.3c-0.1,0-0.1,0-0.2,0c-0.1,0-0.2,0-0.3-0.1
			c-0.1-0.1-0.1-0.2-0.1-0.3c0-0.1,0-0.2,0-0.4l0.2-1.4h-0.2l0.1-0.3h0.2l0.1-0.6l0.4-0.3l-0.1,0.9h0.3l-0.1,0.3h-0.3l-0.2,1.3
			c0,0.2,0,0.3,0,0.3c0,0.1,0,0.1,0,0.1c0,0,0.1,0,0.1,0C75.8,20.8,75.9,20.8,76,20.8z M72.2,18.7V19c-0.1,0-0.2,0.1-0.3,0.2
			c-0.1,0.1-0.2,0.3-0.3,0.5h0.5V20h-0.6c0,0,0,0.1,0,0.1c0,0.2,0,0.4,0.1,0.5c0.1,0.1,0.2,0.2,0.3,0.2c0.1,0,0.1,0,0.2,0v0.3
			c-0.1,0-0.1,0-0.2,0c-0.1,0-0.3,0-0.4-0.1c-0.1-0.1-0.2-0.2-0.3-0.3c-0.1-0.2-0.1-0.3-0.1-0.5c0-0.3,0.1-0.5,0.1-0.8
			c0.1-0.2,0.2-0.4,0.4-0.5C71.9,18.8,72.1,18.7,72.2,18.7L72.2,18.7z M69.3,21.1v-0.3c0,0,0.1,0,0.1-0.1c0.1-0.1,0.2-0.2,0.2-0.3
			c0.1-0.1,0.1-0.3,0.1-0.6c-0.1,0-0.2,0.1-0.4,0.1c0,0-0.1,0-0.1,0v-0.3l0,0c0.2,0,0.3,0,0.4,0c0.1,0,0.1,0,0.2-0.1
			c0-0.1,0-0.2,0-0.3c0-0.1,0-0.2-0.1-0.2c-0.1-0.1-0.2-0.1-0.3-0.1c-0.1,0-0.1,0-0.2,0v-0.3c0.1,0,0.1,0,0.2,0
			c0.2,0,0.4,0.1,0.5,0.2c0.1,0.1,0.2,0.3,0.2,0.4c0,0.1,0,0.3,0,0.4l-0.1,0.6c0,0.2,0,0.3,0,0.4c0,0.1,0,0.2,0,0.3h-0.3
			c0-0.1,0-0.2,0-0.3C69.6,20.9,69.5,21,69.3,21.1C69.4,21.1,69.3,21.1,69.3,21.1L69.3,21.1z M70.4,21.1l0.5-3.2h0.3l-0.5,3.2H70.4z
			 M69.3,18.7v0.3c-0.2,0.1-0.3,0.2-0.3,0.4l-0.3,0C68.8,19,69,18.8,69.3,18.7L69.3,18.7z M69.3,19.7V20c-0.1,0-0.2,0-0.3,0.1
			c-0.1,0-0.1,0.1-0.2,0.1c0,0.1-0.1,0.1-0.1,0.2c0,0.1,0,0.2,0.1,0.3c0.1,0.1,0.1,0.1,0.3,0.1c0.1,0,0.1,0,0.2,0v0.3
			c-0.1,0-0.2,0-0.2,0c-0.2,0-0.3-0.1-0.4-0.2c-0.1-0.1-0.2-0.3-0.2-0.5c0-0.1,0-0.3,0.1-0.4c0.1-0.1,0.1-0.2,0.3-0.3
			C69,19.8,69.1,19.7,69.3,19.7L69.3,19.7z M64.6,21.1v-0.3c0.1,0,0.1-0.1,0.2-0.1c0.1-0.1,0.2-0.2,0.2-0.4l0.3,0
			c-0.1,0.2-0.2,0.4-0.4,0.6C64.9,21,64.8,21.1,64.6,21.1L64.6,21.1z M64.6,20v-0.3h0.5v-0.1c0-0.2,0-0.4-0.1-0.5
			C65,19.1,64.9,19,64.7,19c0,0-0.1,0-0.1,0v-0.3c0,0,0.1,0,0.1,0c0.2,0,0.4,0.1,0.5,0.3c0.1,0.2,0.2,0.4,0.2,0.7c0,0.1,0,0.2,0,0.4
			H64.6L64.6,20z M65.6,21.1l0.5-3.2h0.3L66,21.1H65.6L65.6,21.1z M68.2,20.8l-0.1,0.3c-0.1,0-0.1,0-0.2,0c-0.1,0-0.2,0-0.3-0.1
			c-0.1-0.1-0.1-0.2-0.1-0.3c0-0.1,0-0.2,0-0.4l0.2-1.4h-0.2l0.1-0.3h0.2l0.1-0.6l0.4-0.3l-0.1,0.9h0.3l-0.1,0.3h-0.3l-0.2,1.3
			c0,0.2,0,0.3,0,0.3c0,0.1,0,0.1,0,0.1c0,0,0.1,0,0.1,0C68.1,20.8,68.1,20.8,68.2,20.8z M64.6,18.7V19c-0.1,0-0.2,0.1-0.3,0.2
			c-0.1,0.1-0.2,0.3-0.3,0.5h0.5V20h-0.6c0,0,0,0.1,0,0.1c0,0.2,0,0.4,0.1,0.5c0.1,0.1,0.2,0.2,0.3,0.2c0.1,0,0.1,0,0.2,0v0.3
			c-0.1,0-0.1,0-0.2,0c-0.1,0-0.3,0-0.4-0.1c-0.1-0.1-0.2-0.2-0.3-0.3c-0.1-0.2-0.1-0.3-0.1-0.5c0-0.3,0.1-0.5,0.1-0.8
			c0.1-0.2,0.2-0.4,0.4-0.5C64.4,18.8,64.5,18.7,64.6,18.7L64.6,18.7z M59.7,21.1v-0.3c0.1,0,0.1-0.1,0.2-0.1
			c0.1-0.1,0.2-0.2,0.2-0.4l0.3,0c-0.1,0.2-0.2,0.4-0.4,0.6C59.9,21,59.8,21.1,59.7,21.1L59.7,21.1z M59.7,20v-0.3h0.5v-0.1
			c0-0.2,0-0.4-0.1-0.5C60,19.1,59.9,19,59.8,19c0,0-0.1,0-0.1,0v-0.3c0,0,0.1,0,0.1,0c0.2,0,0.4,0.1,0.5,0.3
			c0.1,0.2,0.2,0.4,0.2,0.7c0,0.1,0,0.2,0,0.4H59.7L59.7,20z M60.7,21.1l0.4-2.3h0.3l-0.1,0.4c0.1-0.2,0.3-0.3,0.4-0.4
			c0.1-0.1,0.2-0.1,0.3-0.1c0.1,0,0.3,0.1,0.3,0.2c0.1,0.1,0.1,0.2,0.1,0.4c0,0.1,0,0.2,0,0.4l-0.2,1.4h-0.3l0.2-1.5
			c0-0.1,0-0.3,0-0.3c0-0.1,0-0.1-0.1-0.2c0,0-0.1-0.1-0.2-0.1c-0.2,0-0.3,0.1-0.4,0.2c-0.1,0.1-0.2,0.4-0.3,0.8L61,21.1H60.7z
			 M59.7,18.7V19c-0.1,0-0.2,0.1-0.3,0.2c-0.1,0.1-0.2,0.3-0.3,0.5h0.5V20h-0.6c0,0,0,0.1,0,0.1c0,0.2,0,0.4,0.1,0.5
			c0.1,0.1,0.2,0.2,0.3,0.2c0.1,0,0.1,0,0.2,0v0.3c-0.1,0-0.1,0-0.2,0c-0.1,0-0.3,0-0.4-0.1c-0.1-0.1-0.2-0.2-0.3-0.3
			c-0.1-0.2-0.1-0.3-0.1-0.5c0-0.3,0.1-0.5,0.1-0.8c0.1-0.2,0.2-0.4,0.4-0.5C59.4,18.8,59.5,18.7,59.7,18.7L59.7,18.7z M54.9,21.1
			v-0.3c0.1,0,0.1-0.1,0.2-0.1c0.1-0.1,0.2-0.2,0.3-0.4c0.1-0.2,0.1-0.4,0.1-0.6c0-0.2,0-0.4-0.1-0.5C55.2,19.1,55.1,19,55,19
			c0,0-0.1,0-0.1,0v-0.3c0,0,0.1,0,0.1,0c0.2,0,0.4,0.1,0.5,0.3c0.1,0.2,0.2,0.4,0.2,0.7c0,0.3,0,0.5-0.1,0.8
			c-0.1,0.2-0.2,0.4-0.4,0.5C55.1,21.1,55,21.1,54.9,21.1L54.9,21.1z M55.9,20.3l0.3,0c0,0.2,0,0.3,0.1,0.4c0.1,0.1,0.2,0.1,0.3,0.1
			c0.1,0,0.2,0,0.3-0.1c0.1-0.1,0.1-0.2,0.1-0.3c0-0.1,0-0.1-0.1-0.2c0-0.1-0.2-0.1-0.3-0.2c-0.2-0.1-0.3-0.2-0.4-0.2
			c-0.1-0.1-0.1-0.1-0.1-0.2c0-0.1,0-0.2,0-0.3c0-0.2,0.1-0.4,0.2-0.5c0.1-0.1,0.3-0.2,0.5-0.2c0.2,0,0.4,0.1,0.5,0.2
			c0.1,0.1,0.2,0.3,0.2,0.5l-0.3,0c0-0.1,0-0.3-0.1-0.3C57.1,19.1,57,19,56.8,19c-0.1,0-0.2,0-0.2,0.1c-0.1,0.1-0.1,0.1-0.1,0.2
			c0,0.1,0,0.1,0.1,0.2c0,0,0.1,0.1,0.3,0.2c0.2,0.1,0.4,0.2,0.5,0.3c0.1,0.1,0.1,0.3,0.1,0.4c0,0.2-0.1,0.4-0.2,0.5
			c-0.1,0.1-0.3,0.2-0.6,0.2c-0.2,0-0.4-0.1-0.6-0.2C56,20.8,55.9,20.6,55.9,20.3L55.9,20.3z M54.9,18.7V19c-0.1,0-0.1,0.1-0.2,0.1
			c-0.1,0.1-0.2,0.2-0.3,0.4c-0.1,0.2-0.1,0.4-0.1,0.6c0,0.2,0,0.4,0.1,0.5c0.1,0.1,0.2,0.2,0.3,0.2c0,0,0.1,0,0.1,0v0.3
			c0,0-0.1,0-0.1,0c-0.2,0-0.4-0.1-0.5-0.3c-0.1-0.2-0.2-0.4-0.2-0.7c0-0.4,0.1-0.8,0.3-1.1C54.4,18.9,54.6,18.8,54.9,18.7
			L54.9,18.7z M50.2,21.1V21l0.4-2.2h0.3l-0.4,2.3H50.2L50.2,21.1z M50.2,18.9l0-0.1h0V18.9L50.2,18.9z M50.6,18.3l0.1-0.5H51
			l-0.1,0.5H50.6L50.6,18.3z M50.9,21.1l0.4-2.3h0.3l-0.1,0.4c0.1-0.2,0.2-0.3,0.3-0.3c0.1-0.1,0.2-0.1,0.3-0.1c0.1,0,0.2,0,0.3,0.1
			c0.1,0.1,0.1,0.2,0.2,0.3c0.1-0.1,0.2-0.3,0.3-0.3c0.1-0.1,0.2-0.1,0.3-0.1c0.1,0,0.3,0,0.3,0.1c0.1,0.1,0.1,0.2,0.1,0.4
			c0,0.1,0,0.2,0,0.4l-0.2,1.5h-0.3l0.3-1.5c0-0.1,0-0.2,0-0.3c0-0.1,0-0.1-0.1-0.2c0,0-0.1-0.1-0.2-0.1c-0.1,0-0.2,0-0.3,0.1
			c-0.1,0.1-0.2,0.2-0.2,0.3c-0.1,0.1-0.1,0.3-0.1,0.6l-0.2,1.1H52l0.3-1.6c0-0.1,0-0.2,0-0.2c0-0.1,0-0.1-0.1-0.2
			c0,0-0.1-0.1-0.1-0.1c-0.1,0-0.3,0.1-0.4,0.2c-0.1,0.1-0.2,0.4-0.3,0.7l-0.2,1.1H50.9z M50.2,18.8v0.1l0,0.2h-0.3l-0.2,1.3
			c0,0.2,0,0.3,0,0.3c0,0.1,0,0.1,0,0.1c0,0,0.1,0,0.1,0c0.1,0,0.1,0,0.2,0l-0.1,0.3c-0.1,0-0.1,0-0.2,0c-0.1,0-0.2,0-0.3-0.1
			c0,0,0,0,0-0.1v-0.6l0.2-1.3h-0.2V19l0.1-0.2c0,0,0,0-0.1,0v0.1l0-0.1h0.2l0.1-0.6l0.4-0.3l-0.1,0.9H50.2L50.2,18.8z M50.2,21
			l0,0.1h0V21z M49.3,18.8v0.1l0,0.2h0V19l-0.1,0.2c-0.1-0.1-0.1-0.1-0.2-0.1c-0.1,0-0.2,0.1-0.3,0.2c-0.1,0.2-0.2,0.4-0.3,0.8
			l-0.2,0.9H48l0.4-2.3h0.3l-0.1,0.5c0.2-0.4,0.4-0.5,0.6-0.5C49.2,18.7,49.2,18.7,49.3,18.8L49.3,18.8z M49.3,20.4L49.3,20.4
			c0,0.2-0.1,0.4-0.1,0.4c0,0.1,0,0.1,0.1,0.2V20.4L49.3,20.4z M46.9,21.1v-0.3c0.1,0,0.1-0.1,0.2-0.1c0.1-0.1,0.2-0.2,0.2-0.4
			l0.3,0c-0.1,0.2-0.2,0.4-0.4,0.6C47.2,21,47.1,21.1,46.9,21.1L46.9,21.1z M46.9,20v-0.3h0.5v-0.1c0-0.2,0-0.4-0.1-0.5
			C47.3,19.1,47.2,19,47,19c0,0-0.1,0-0.1,0v-0.3c0,0,0.1,0,0.1,0c0.2,0,0.4,0.1,0.5,0.3c0.1,0.2,0.2,0.4,0.2,0.7c0,0.1,0,0.2,0,0.4
			H46.9z M46.9,18.7V19c-0.1,0-0.2,0.1-0.3,0.2c-0.1,0.1-0.2,0.3-0.3,0.5h0.5V20h-0.6c0,0,0,0.1,0,0.1c0,0.2,0,0.4,0.1,0.5
			c0.1,0.1,0.2,0.2,0.3,0.2c0.1,0,0.1,0,0.2,0v0.3c-0.1,0-0.1,0-0.2,0c-0.1,0-0.3,0-0.4-0.1c-0.1-0.1-0.2-0.2-0.3-0.3
			c0-0.1-0.1-0.2-0.1-0.3v-0.4c0-0.2,0.1-0.4,0.1-0.5c0.1-0.2,0.2-0.4,0.4-0.5C46.7,18.8,46.8,18.7,46.9,18.7L46.9,18.7z M46.1,18.8
			L46.1,18.8L46.1,18.8L46.1,18.8z M41.3,21.1l0.5-3.2h0.3l-0.5,3.2H41.3L41.3,21.1z M46.1,18.8L46.1,18.8l-1,2.3h-0.4l-0.3-2.3h0.3
			l0.2,1.3c0,0.1,0,0.4,0.1,0.7c0.1-0.2,0.1-0.4,0.2-0.6l0.6-1.4H46.1L46.1,18.8z M46.1,19.9c0,0.1,0,0.1,0,0.2c0,0.1,0,0.1,0,0.2
			V19.9L46.1,19.9z M42.2,21.1l0.4-2.3h0.3l-0.1,0.4c0.1-0.2,0.3-0.3,0.4-0.4s0.2-0.1,0.3-0.1c0.1,0,0.3,0.1,0.3,0.2
			c0.1,0.1,0.1,0.2,0.1,0.4c0,0.1,0,0.2,0,0.4l-0.2,1.4h-0.3l0.2-1.5c0-0.1,0-0.3,0-0.3c0-0.1,0-0.1-0.1-0.2c0,0-0.1-0.1-0.2-0.1
			c-0.2,0-0.3,0.1-0.4,0.2c-0.1,0.1-0.2,0.4-0.3,0.8l-0.2,1.1H42.2z"/>
		<path class="st1" d="M108,20.3l0.3,0c0,0.2,0,0.3,0.1,0.4c0.1,0.1,0.2,0.1,0.3,0.1c0.1,0,0.2,0,0.3-0.1c0.1-0.1,0.1-0.2,0.1-0.3
			c0-0.1,0-0.1-0.1-0.2c0-0.1-0.2-0.1-0.3-0.2c-0.2-0.1-0.3-0.2-0.4-0.2c-0.1-0.1-0.1-0.1-0.1-0.2c0-0.1,0-0.2,0-0.3
			c0-0.2,0.1-0.4,0.2-0.5c0.1-0.1,0.3-0.2,0.5-0.2c0.2,0,0.4,0.1,0.5,0.2c0.1,0.1,0.2,0.3,0.2,0.5l-0.3,0c0-0.1,0-0.3-0.1-0.3
			c-0.1-0.1-0.2-0.1-0.3-0.1c-0.1,0-0.2,0-0.2,0.1c-0.1,0.1-0.1,0.1-0.1,0.2c0,0.1,0,0.1,0.1,0.2c0,0,0.1,0.1,0.3,0.2
			c0.2,0.1,0.4,0.2,0.5,0.3c0.1,0.1,0.1,0.3,0.1,0.4c0,0.2-0.1,0.4-0.2,0.5c-0.1,0.1-0.3,0.2-0.6,0.2c-0.2,0-0.4-0.1-0.6-0.2
			C108.1,20.8,108,20.6,108,20.3L108,20.3z"/>
	</g>
	<path class="st0" d="M13.2,2.9h26.7v18.3H13.2c-2,0-3.6-1.5-3.6-3.2V6.1C9.6,4.3,11.2,2.9,13.2,2.9z"/>
	<g>
		<rect x="14.5" y="7.5" class="st2" width="0.6" height="0.6"/>
		<g>
			<rect x="14.5" y="8.2" class="st2" width="0.6" height="0.6"/>
			<rect x="13.9" y="8.2" class="st2" width="0.6" height="0.6"/>
			<rect x="13.2" y="8.2" class="st2" width="0.6" height="0.6"/>
		</g>
		<g>
			<rect x="13.9" y="8.8" class="st2" width="0.6" height="0.6"/>
			<rect x="13.2" y="8.8" class="st2" width="0.6" height="0.6"/>
		</g>
		<g>
			<rect x="14" y="9.5" class="st2" width="0.6" height="0.6"/>
			<rect x="13.4" y="9.5" class="st2" width="0.6" height="0.6"/>
			<rect x="12.7" y="9.5" class="st2" width="0.6" height="0.6"/>
		</g>
		<g>
			<rect x="14" y="10.1" class="st2" width="0.6" height="0.6"/>
			<rect x="13.4" y="10.1" class="st2" width="0.6" height="0.6"/>
			<rect x="12.7" y="10.1" class="st2" width="0.6" height="0.6"/>
		</g>
		<g>
			<rect x="12.7" y="10.7" class="st2" width="0.6" height="0.6"/>
			<rect x="12" y="10.7" class="st2" width="0.6" height="0.6"/>
		</g>
		<g>
			<rect x="12.7" y="11.4" class="st2" width="0.6" height="0.6"/>
			<rect x="12" y="11.4" class="st2" width="0.6" height="0.6"/>
		</g>
		<g>
			<rect x="13.3" y="12" class="st2" width="0.6" height="0.6"/>
			<rect x="12.7" y="12" class="st2" width="0.6" height="0.6"/>
			<rect x="12" y="12" class="st2" width="0.6" height="0.6"/>
		</g>
		<g>
			<rect x="13.3" y="12.7" class="st2" width="0.6" height="0.6"/>
			<rect x="12.7" y="12.7" class="st2" width="0.6" height="0.6"/>
		</g>
		<g>
			<rect x="13.3" y="13.3" class="st2" width="0.6" height="0.6"/>
			<rect x="12.7" y="13.3" class="st2" width="0.6" height="0.6"/>
		</g>
		<g>
			<rect x="14" y="13.9" class="st2" width="0.6" height="0.6"/>
			<rect x="13.3" y="13.9" class="st2" width="0.6" height="0.6"/>
			<rect x="12.7" y="13.9" class="st2" width="0.6" height="0.6"/>
		</g>
		<rect x="14" y="14.6" class="st2" width="0.6" height="0.6"/>
		<g>
			<rect x="15.2" y="15.7" class="st2" width="0.6" height="0.6"/>
			<rect x="14.6" y="15.7" class="st2" width="0.6" height="0.6"/>
			<rect x="13.9" y="15.7" class="st2" width="0.6" height="0.6"/>
		</g>
		<g>
			<rect x="16.5" y="16.4" class="st2" width="0.6" height="0.6"/>
			<rect x="15.8" y="16.4" class="st2" width="0.6" height="0.6"/>
			<rect x="15.1" y="16.4" class="st2" width="0.6" height="0.6"/>
		</g>
		<g>
			<rect x="16.5" y="17.1" class="st2" width="0.6" height="0.6"/>
			<rect x="15.8" y="17.1" class="st2" width="0.6" height="0.6"/>
		</g>
		<g>
			<rect x="18.5" y="6.8" class="st2" width="0.6" height="0.6"/>
			<rect x="17.8" y="6.8" class="st2" width="0.6" height="0.6"/>
			<rect x="17.1" y="6.8" class="st2" width="0.6" height="0.6"/>
			<rect x="19.8" y="6.8" class="st2" width="0.6" height="0.6"/>
			<rect x="19.1" y="6.8" class="st2" width="0.6" height="0.6"/>
			<rect x="21.8" y="6.8" class="st2" width="0.6" height="0.6"/>
			<rect x="21.1" y="6.8" class="st2" width="0.6" height="0.6"/>
			<rect x="20.5" y="6.8" class="st2" width="0.6" height="0.6"/>
			<rect x="23.1" y="6.8" class="st2" width="0.6" height="0.6"/>
			<rect x="22.5" y="6.8" class="st2" width="0.6" height="0.6"/>
			<rect x="25.1" y="6.8" class="st2" width="0.6" height="0.6"/>
			<rect x="24.5" y="6.8" class="st2" width="0.6" height="0.6"/>
			<rect x="23.8" y="6.8" class="st2" width="0.6" height="0.6"/>
			<rect x="26.4" y="6.8" class="st2" width="0.6" height="0.6"/>
			<rect x="25.8" y="6.8" class="st2" width="0.6" height="0.6"/>
		</g>
		<g>
			<rect x="22.3" y="7.5" class="st2" width="0.6" height="0.6"/>
			<rect x="21.6" y="7.5" class="st2" width="0.6" height="0.6"/>
			<rect x="21" y="7.5" class="st2" width="0.6" height="0.6"/>
			<rect x="23.6" y="7.5" class="st2" width="0.6" height="0.6"/>
			<rect x="22.9" y="7.5" class="st2" width="0.6" height="0.6"/>
			<rect x="25.6" y="7.5" class="st2" width="0.6" height="0.6"/>
			<rect x="24.9" y="7.5" class="st2" width="0.6" height="0.6"/>
			<rect x="24.3" y="7.5" class="st2" width="0.6" height="0.6"/>
			<rect x="26.9" y="7.5" class="st2" width="0.6" height="0.6"/>
			<rect x="26.2" y="7.5" class="st2" width="0.6" height="0.6"/>
		</g>
		<g>
			<rect x="22.3" y="8.1" class="st2" width="0.6" height="0.6"/>
			<rect x="21.6" y="8.1" class="st2" width="0.6" height="0.6"/>
			<rect x="21" y="8.1" class="st2" width="0.6" height="0.6"/>
			<rect x="23.6" y="8.1" class="st2" width="0.6" height="0.6"/>
			<rect x="22.9" y="8.1" class="st2" width="0.6" height="0.6"/>
			<rect x="25.6" y="8.1" class="st2" width="0.6" height="0.6"/>
			<rect x="24.9" y="8.1" class="st2" width="0.6" height="0.6"/>
			<rect x="24.3" y="8.1" class="st2" width="0.6" height="0.6"/>
			<rect x="26.9" y="8.1" class="st2" width="0.6" height="0.6"/>
			<rect x="26.2" y="8.1" class="st2" width="0.6" height="0.6"/>
		</g>
		<g>
			<rect x="22.8" y="8.8" class="st2" width="0.6" height="0.6"/>
			<rect x="22.2" y="8.8" class="st2" width="0.6" height="0.6"/>
			<rect x="21.5" y="8.8" class="st2" width="0.6" height="0.6"/>
			<rect x="24.2" y="8.8" class="st2" width="0.6" height="0.6"/>
			<rect x="23.5" y="8.8" class="st2" width="0.6" height="0.6"/>
			<rect x="25.5" y="8.8" class="st2" width="0.6" height="0.6"/>
			<rect x="24.8" y="8.8" class="st2" width="0.6" height="0.6"/>
		</g>
		<g>
			<rect x="21.6" y="9.5" class="st2" width="0.6" height="0.6"/>
			<rect x="20.9" y="9.5" class="st2" width="0.6" height="0.6"/>
			<rect x="20.2" y="9.5" class="st2" width="0.6" height="0.6"/>
			<rect x="22.9" y="9.5" class="st2" width="0.6" height="0.6"/>
			<rect x="22.2" y="9.5" class="st2" width="0.6" height="0.6"/>
			<rect x="24.8" y="9.5" class="st2" width="0.6" height="0.6"/>
			<rect x="24.2" y="9.5" class="st2" width="0.6" height="0.6"/>
			<rect x="23.5" y="9.5" class="st2" width="0.6" height="0.6"/>
		</g>
		<g>
			<rect x="21.7" y="10.1" class="st2" width="0.6" height="0.6"/>
			<rect x="21" y="10.1" class="st2" width="0.6" height="0.6"/>
			<rect x="23" y="10.1" class="st2" width="0.6" height="0.6"/>
			<rect x="22.3" y="10.1" class="st2" width="0.6" height="0.6"/>
			<rect x="25" y="10.1" class="st2" width="0.6" height="0.6"/>
			<rect x="24.3" y="10.1" class="st2" width="0.6" height="0.6"/>
			<rect x="23.6" y="10.1" class="st2" width="0.6" height="0.6"/>
		</g>
		<g>
			<rect x="22.3" y="10.8" class="st2" width="0.6" height="0.6"/>
			<rect x="21.7" y="10.8" class="st2" width="0.6" height="0.6"/>
			<rect x="23.7" y="10.8" class="st2" width="0.6" height="0.6"/>
			<rect x="23" y="10.8" class="st2" width="0.6" height="0.6"/>
			<rect x="24.3" y="10.8" class="st2" width="0.6" height="0.6"/>
		</g>
		<g>
			<rect x="22.3" y="11.4" class="st2" width="0.6" height="0.6"/>
			<rect x="21.7" y="11.4" class="st2" width="0.6" height="0.6"/>
			<rect x="23.7" y="11.4" class="st2" width="0.6" height="0.6"/>
			<rect x="23" y="11.4" class="st2" width="0.6" height="0.6"/>
			<rect x="25.6" y="11.4" class="st2" width="0.6" height="0.6"/>
			<rect x="25" y="11.4" class="st2" width="0.6" height="0.6"/>
			<rect x="24.3" y="11.4" class="st2" width="0.6" height="0.6"/>
		</g>
		<g>
			<rect x="24.8" y="12.1" class="st2" width="0.6" height="0.6"/>
			<rect x="24.1" y="12.1" class="st2" width="0.6" height="0.6"/>
			<rect x="26.1" y="12.1" class="st2" width="0.6" height="0.6"/>
			<rect x="25.4" y="12.1" class="st2" width="0.6" height="0.6"/>
			<rect x="26.8" y="12.1" class="st2" width="0.6" height="0.6"/>
		</g>
		<g>
			<rect x="24.8" y="12.7" class="st2" width="0.6" height="0.6"/>
			<rect x="24.1" y="12.7" class="st2" width="0.6" height="0.6"/>
			<rect x="26.1" y="12.7" class="st2" width="0.6" height="0.6"/>
			<rect x="25.4" y="12.7" class="st2" width="0.6" height="0.6"/>
			<rect x="26.8" y="12.7" class="st2" width="0.6" height="0.6"/>
		</g>
		<g>
			<rect x="24.8" y="13.4" class="st2" width="0.6" height="0.6"/>
			<rect x="24.1" y="13.4" class="st2" width="0.6" height="0.6"/>
			<rect x="26.1" y="13.4" class="st2" width="0.6" height="0.6"/>
			<rect x="25.4" y="13.4" class="st2" width="0.6" height="0.6"/>
			<rect x="28.1" y="13.4" class="st2" width="0.6" height="0.6"/>
			<rect x="27.4" y="13.4" class="st2" width="0.6" height="0.6"/>
			<rect x="26.8" y="13.4" class="st2" width="0.6" height="0.6"/>
		</g>
		<g>
			<rect x="25.4" y="14" class="st2" width="0.6" height="0.6"/>
			<rect x="24.8" y="14" class="st2" width="0.6" height="0.6"/>
			<rect x="24.1" y="14" class="st2" width="0.6" height="0.6"/>
			<rect x="26.8" y="14" class="st2" width="0.6" height="0.6"/>
			<rect x="26.1" y="14" class="st2" width="0.6" height="0.6"/>
			<rect x="28.7" y="14" class="st2" width="0.6" height="0.6"/>
			<rect x="28.1" y="14" class="st2" width="0.6" height="0.6"/>
			<rect x="27.4" y="14" class="st2" width="0.6" height="0.6"/>
		</g>
		<g>
			<rect x="25.4" y="14.7" class="st2" width="0.6" height="0.6"/>
			<rect x="24.8" y="14.7" class="st2" width="0.6" height="0.6"/>
			<rect x="24.1" y="14.7" class="st2" width="0.6" height="0.6"/>
			<rect x="26.8" y="14.7" class="st2" width="0.6" height="0.6"/>
			<rect x="26.1" y="14.7" class="st2" width="0.6" height="0.6"/>
			<rect x="28.7" y="14.7" class="st2" width="0.6" height="0.6"/>
			<rect x="28.1" y="14.7" class="st2" width="0.6" height="0.6"/>
			<rect x="27.4" y="14.7" class="st2" width="0.6" height="0.6"/>
		</g>
		<g>
			<rect x="26" y="15.3" class="st2" width="0.6" height="0.6"/>
			<rect x="25.4" y="15.3" class="st2" width="0.6" height="0.6"/>
			<rect x="24.7" y="15.3" class="st2" width="0.6" height="0.6"/>
			<rect x="27.3" y="15.3" class="st2" width="0.6" height="0.6"/>
			<rect x="26.7" y="15.3" class="st2" width="0.6" height="0.6"/>
			<rect x="28.7" y="15.3" class="st2" width="0.6" height="0.6"/>
			<rect x="28" y="15.3" class="st2" width="0.6" height="0.6"/>
		</g>
		<g>
			<rect x="26" y="16" class="st2" width="0.6" height="0.6"/>
			<rect x="25.4" y="16" class="st2" width="0.6" height="0.6"/>
			<rect x="24.7" y="16" class="st2" width="0.6" height="0.6"/>
			<rect x="27.3" y="16" class="st2" width="0.6" height="0.6"/>
			<rect x="26.7" y="16" class="st2" width="0.6" height="0.6"/>
			<rect x="28.7" y="16" class="st2" width="0.6" height="0.6"/>
			<rect x="28" y="16" class="st2" width="0.6" height="0.6"/>
		</g>
		<g>
			<rect x="26.7" y="16.6" class="st2" width="0.6" height="0.6"/>
			<rect x="26" y="16.6" class="st2" width="0.6" height="0.6"/>
			<rect x="25.4" y="16.6" class="st2" width="0.6" height="0.6"/>
			<rect x="28" y="16.6" class="st2" width="0.6" height="0.6"/>
			<rect x="27.3" y="16.6" class="st2" width="0.6" height="0.6"/>
		</g>
		<g>
			<rect x="26.7" y="17.3" class="st2" width="0.6" height="0.6"/>
			<rect x="26" y="17.3" class="st2" width="0.6" height="0.6"/>
			<rect x="25.4" y="17.3" class="st2" width="0.6" height="0.6"/>
		</g>
		<g>
			<rect x="26" y="17.9" class="st2" width="0.6" height="0.6"/>
			<rect x="25.4" y="17.9" class="st2" width="0.6" height="0.6"/>
		</g>
		<g>
			<rect x="26" y="18.6" class="st2" width="0.6" height="0.6"/>
			<rect x="25.4" y="18.6" class="st2" width="0.6" height="0.6"/>
		</g>
		<rect x="25.4" y="19.2" class="st2" width="0.6" height="0.6"/>
		<g>
			<g>
				<rect x="17.3" y="6.2" class="st2" width="0.6" height="0.6"/>
				<rect x="16.6" y="6.2" class="st2" width="0.6" height="0.6"/>
				<rect x="15.9" y="6.2" class="st2" width="0.6" height="0.6"/>
				<rect x="18.6" y="6.2" class="st2" width="0.6" height="0.6"/>
				<rect x="17.9" y="6.2" class="st2" width="0.6" height="0.6"/>
				<rect x="20.5" y="6.2" class="st2" width="0.6" height="0.6"/>
				<rect x="19.9" y="6.2" class="st2" width="0.6" height="0.6"/>
				<rect x="19.2" y="6.2" class="st2" width="0.6" height="0.6"/>
				<rect x="21.9" y="6.2" class="st2" width="0.6" height="0.6"/>
				<rect x="21.2" y="6.2" class="st2" width="0.6" height="0.6"/>
				<rect x="23.8" y="6.2" class="st2" width="0.6" height="0.6"/>
				<rect x="23.2" y="6.2" class="st2" width="0.6" height="0.6"/>
				<rect x="22.5" y="6.2" class="st2" width="0.6" height="0.6"/>
			</g>
			<g>
				<rect x="26.7" y="6.2" class="st2" width="0.6" height="0.6"/>
				<rect x="26" y="6.2" class="st2" width="0.6" height="0.6"/>
			</g>
			<g>
				<rect x="28.6" y="6.2" class="st2" width="0.6" height="0.6"/>
				<rect x="28" y="6.2" class="st2" width="0.6" height="0.6"/>
			</g>
		</g>
		<g>
			<g>
				<rect x="18.3" y="5.5" class="st2" width="0.6" height="0.6"/>
				<rect x="17.7" y="5.5" class="st2" width="0.6" height="0.6"/>
				<rect x="17" y="5.5" class="st2" width="0.6" height="0.6"/>
				<rect x="19.7" y="5.5" class="st2" width="0.6" height="0.6"/>
				<rect x="19" y="5.5" class="st2" width="0.6" height="0.6"/>
			</g>
			<g>
				<rect x="26.7" y="5.5" class="st2" width="0.6" height="0.6"/>
				<rect x="26" y="5.5" class="st2" width="0.6" height="0.6"/>
				<rect x="25.4" y="5.5" class="st2" width="0.6" height="0.6"/>
				<rect x="28" y="5.5" class="st2" width="0.6" height="0.6"/>
				<rect x="27.3" y="5.5" class="st2" width="0.6" height="0.6"/>
				<rect x="30" y="5.5" class="st2" width="0.6" height="0.6"/>
				<rect x="29.3" y="5.5" class="st2" width="0.6" height="0.6"/>
				<rect x="28.6" y="5.5" class="st2" width="0.6" height="0.6"/>
				<rect x="30.6" y="5.5" class="st2" width="0.6" height="0.6"/>
			</g>
		</g>
		<g>
			<rect x="28" y="4.9" class="st2" width="0.6" height="0.6"/>
			<rect x="27.3" y="4.9" class="st2" width="0.6" height="0.6"/>
			<rect x="30" y="4.9" class="st2" width="0.6" height="0.6"/>
			<rect x="29.3" y="4.9" class="st2" width="0.6" height="0.6"/>
			<rect x="28.7" y="4.9" class="st2" width="0.6" height="0.6"/>
			<rect x="30.6" y="4.9" class="st2" width="0.6" height="0.6"/>
		</g>
		<g>
			<rect x="33.7" y="6.2" class="st2" width="0.6" height="0.6"/>
			<rect x="33.1" y="6.2" class="st2" width="0.6" height="0.6"/>
			<rect x="34.4" y="6.2" class="st2" width="0.6" height="0.6"/>
		</g>
		<g>
			<rect x="32.4" y="6.8" class="st2" width="0.6" height="0.6"/>
			<rect x="31.8" y="6.8" class="st2" width="0.6" height="0.6"/>
			<rect x="31.1" y="6.8" class="st2" width="0.6" height="0.6"/>
			<rect x="33.7" y="6.8" class="st2" width="0.6" height="0.6"/>
			<rect x="33.1" y="6.8" class="st2" width="0.6" height="0.6"/>
			<rect x="35.1" y="6.8" class="st2" width="0.6" height="0.6"/>
			<rect x="34.4" y="6.8" class="st2" width="0.6" height="0.6"/>
		</g>
		<g>
			<rect x="32.4" y="7.5" class="st2" width="0.6" height="0.6"/>
			<rect x="31.8" y="7.5" class="st2" width="0.6" height="0.6"/>
			<rect x="31.1" y="7.5" class="st2" width="0.6" height="0.6"/>
			<rect x="33.7" y="7.5" class="st2" width="0.6" height="0.6"/>
			<rect x="33.1" y="7.5" class="st2" width="0.6" height="0.6"/>
			<rect x="35.7" y="7.5" class="st2" width="0.6" height="0.6"/>
			<rect x="35.1" y="7.5" class="st2" width="0.6" height="0.6"/>
			<rect x="34.4" y="7.5" class="st2" width="0.6" height="0.6"/>
		</g>
		<g>
			<rect x="32.4" y="8.1" class="st2" width="0.6" height="0.6"/>
			<rect x="31.8" y="8.1" class="st2" width="0.6" height="0.6"/>
			<rect x="31.1" y="8.1" class="st2" width="0.6" height="0.6"/>
			<rect x="33.7" y="8.1" class="st2" width="0.6" height="0.6"/>
			<rect x="33.1" y="8.1" class="st2" width="0.6" height="0.6"/>
			<rect x="35.7" y="8.1" class="st2" width="0.6" height="0.6"/>
			<rect x="35.1" y="8.1" class="st2" width="0.6" height="0.6"/>
			<rect x="34.4" y="8.1" class="st2" width="0.6" height="0.6"/>
			<rect x="36.4" y="8.1" class="st2" width="0.6" height="0.6"/>
		</g>
		<g>
			<rect x="32.4" y="8.8" class="st2" width="0.6" height="0.6"/>
			<rect x="31.8" y="8.8" class="st2" width="0.6" height="0.6"/>
			<rect x="31.1" y="8.8" class="st2" width="0.6" height="0.6"/>
			<rect x="33.8" y="8.8" class="st2" width="0.6" height="0.6"/>
			<rect x="33.1" y="8.8" class="st2" width="0.6" height="0.6"/>
			<rect x="35.7" y="8.8" class="st2" width="0.6" height="0.6"/>
			<rect x="35.1" y="8.8" class="st2" width="0.6" height="0.6"/>
			<rect x="34.4" y="8.8" class="st2" width="0.6" height="0.6"/>
			<rect x="36.4" y="8.8" class="st2" width="0.6" height="0.6"/>
			<rect x="37.1" y="8.8" class="st2" width="0.6" height="0.6"/>
		</g>
		<g>
			<rect x="32.4" y="9.5" class="st2" width="0.6" height="0.6"/>
			<rect x="31.8" y="9.5" class="st2" width="0.6" height="0.6"/>
			<rect x="31.1" y="9.5" class="st2" width="0.6" height="0.6"/>
			<rect x="33.8" y="9.5" class="st2" width="0.6" height="0.6"/>
			<rect x="33.1" y="9.5" class="st2" width="0.6" height="0.6"/>
			<rect x="35.7" y="9.5" class="st2" width="0.6" height="0.6"/>
			<rect x="35.1" y="9.5" class="st2" width="0.6" height="0.6"/>
			<rect x="34.4" y="9.5" class="st2" width="0.6" height="0.6"/>
			<rect x="36.4" y="9.5" class="st2" width="0.6" height="0.6"/>
		</g>
		<g>
			<rect x="32.4" y="10.1" class="st2" width="0.6" height="0.6"/>
			<rect x="31.8" y="10.1" class="st2" width="0.6" height="0.6"/>
			<rect x="31.1" y="10.1" class="st2" width="0.6" height="0.6"/>
			<rect x="33.8" y="10.1" class="st2" width="0.6" height="0.6"/>
			<rect x="33.1" y="10.1" class="st2" width="0.6" height="0.6"/>
			<rect x="35.7" y="10.1" class="st2" width="0.6" height="0.6"/>
			<rect x="35.1" y="10.1" class="st2" width="0.6" height="0.6"/>
			<rect x="34.4" y="10.1" class="st2" width="0.6" height="0.6"/>
			<rect x="36.4" y="10.1" class="st2" width="0.6" height="0.6"/>
			<rect x="37.1" y="10.1" class="st2" width="0.6" height="0.6"/>
		</g>
		<g>
			<rect x="31.9" y="10.8" class="st2" width="0.6" height="0.6"/>
			<rect x="31.3" y="10.8" class="st2" width="0.6" height="0.6"/>
			<rect x="30.6" y="10.8" class="st2" width="0.6" height="0.6"/>
			<rect x="33.3" y="10.8" class="st2" width="0.6" height="0.6"/>
			<rect x="32.6" y="10.8" class="st2" width="0.6" height="0.6"/>
			<rect x="35.3" y="10.8" class="st2" width="0.6" height="0.6"/>
			<rect x="34.6" y="10.8" class="st2" width="0.6" height="0.6"/>
			<rect x="33.9" y="10.8" class="st2" width="0.6" height="0.6"/>
			<rect x="35.9" y="10.8" class="st2" width="0.6" height="0.6"/>
			<rect x="36.6" y="10.8" class="st2" width="0.6" height="0.6"/>
			<rect x="37.2" y="10.8" class="st2" width="0.6" height="0.6"/>
		</g>
		<g>
			<rect x="31.9" y="11.5" class="st2" width="0.6" height="0.6"/>
			<rect x="31.3" y="11.5" class="st2" width="0.6" height="0.6"/>
			<rect x="30.6" y="11.5" class="st2" width="0.6" height="0.6"/>
			<rect x="33.3" y="11.5" class="st2" width="0.6" height="0.6"/>
			<rect x="32.6" y="11.5" class="st2" width="0.6" height="0.6"/>
			<rect x="35.3" y="11.5" class="st2" width="0.6" height="0.6"/>
			<rect x="34.6" y="11.5" class="st2" width="0.6" height="0.6"/>
			<rect x="33.9" y="11.5" class="st2" width="0.6" height="0.6"/>
			<rect x="35.9" y="11.5" class="st2" width="0.6" height="0.6"/>
			<rect x="36.6" y="11.5" class="st2" width="0.6" height="0.6"/>
			<rect x="37.2" y="11.5" class="st2" width="0.6" height="0.6"/>
		</g>
		<g>
			<rect x="32.6" y="12.1" class="st2" width="0.6" height="0.6"/>
			<rect x="31.9" y="12.1" class="st2" width="0.6" height="0.6"/>
			<rect x="31.3" y="12.1" class="st2" width="0.6" height="0.6"/>
			<rect x="33.9" y="12.1" class="st2" width="0.6" height="0.6"/>
			<rect x="33.3" y="12.1" class="st2" width="0.6" height="0.6"/>
			<rect x="35.9" y="12.1" class="st2" width="0.6" height="0.6"/>
			<rect x="35.3" y="12.1" class="st2" width="0.6" height="0.6"/>
			<rect x="34.6" y="12.1" class="st2" width="0.6" height="0.6"/>
			<rect x="36.6" y="12.1" class="st2" width="0.6" height="0.6"/>
			<rect x="37.2" y="12.1" class="st2" width="0.6" height="0.6"/>
		</g>
		<g>
			<rect x="33.3" y="12.8" class="st2" width="0.6" height="0.6"/>
			<rect x="32.6" y="12.8" class="st2" width="0.6" height="0.6"/>
			<rect x="32" y="12.8" class="st2" width="0.6" height="0.6"/>
			<rect x="34.6" y="12.8" class="st2" width="0.6" height="0.6"/>
			<rect x="33.9" y="12.8" class="st2" width="0.6" height="0.6"/>
			<rect x="36.6" y="12.8" class="st2" width="0.6" height="0.6"/>
			<rect x="35.9" y="12.8" class="st2" width="0.6" height="0.6"/>
			<rect x="35.3" y="12.8" class="st2" width="0.6" height="0.6"/>
			<rect x="37.3" y="12.8" class="st2" width="0.6" height="0.6"/>
		</g>
		<g>
			<rect x="34.5" y="13.5" class="st2" width="0.6" height="0.6"/>
			<rect x="33.8" y="13.5" class="st2" width="0.6" height="0.6"/>
			<rect x="33.1" y="13.5" class="st2" width="0.6" height="0.6"/>
			<rect x="35.8" y="13.5" class="st2" width="0.6" height="0.6"/>
			<rect x="35.1" y="13.5" class="st2" width="0.6" height="0.6"/>
			<rect x="37.1" y="13.5" class="st2" width="0.6" height="0.6"/>
			<rect x="36.4" y="13.5" class="st2" width="0.6" height="0.6"/>
		</g>
		<g>
			<rect x="34.5" y="14.1" class="st2" width="0.6" height="0.6"/>
			<rect x="33.8" y="14.1" class="st2" width="0.6" height="0.6"/>
			<rect x="33.1" y="14.1" class="st2" width="0.6" height="0.6"/>
			<rect x="35.8" y="14.1" class="st2" width="0.6" height="0.6"/>
			<rect x="35.1" y="14.1" class="st2" width="0.6" height="0.6"/>
			<rect x="37.1" y="14.1" class="st2" width="0.6" height="0.6"/>
			<rect x="36.4" y="14.1" class="st2" width="0.6" height="0.6"/>
		</g>
		<g>
			<rect x="34.5" y="14.8" class="st2" width="0.6" height="0.6"/>
			<rect x="33.8" y="14.8" class="st2" width="0.6" height="0.6"/>
			<rect x="33.1" y="14.8" class="st2" width="0.6" height="0.6"/>
			<rect x="35.8" y="14.8" class="st2" width="0.6" height="0.6"/>
			<rect x="35.1" y="14.8" class="st2" width="0.6" height="0.6"/>
			<rect x="36.4" y="14.8" class="st2" width="0.6" height="0.6"/>
		</g>
		<g>
			<rect x="34.5" y="15.4" class="st2" width="0.6" height="0.6"/>
			<rect x="33.8" y="15.4" class="st2" width="0.6" height="0.6"/>
			<rect x="33.1" y="15.4" class="st2" width="0.6" height="0.6"/>
			<rect x="35.8" y="15.4" class="st2" width="0.6" height="0.6"/>
			<rect x="35.1" y="15.4" class="st2" width="0.6" height="0.6"/>
		</g>
		<g>
			<rect x="35" y="16.1" class="st2" width="0.6" height="0.6"/>
			<rect x="34.3" y="16.1" class="st2" width="0.6" height="0.6"/>
			<rect x="33.7" y="16.1" class="st2" width="0.6" height="0.6"/>
		</g>
		<g>
			<rect x="34.3" y="16.8" class="st2" width="0.6" height="0.6"/>
			<rect x="33.7" y="16.8" class="st2" width="0.6" height="0.6"/>
		</g>
		<rect x="33.7" y="17.4" class="st2" width="0.6" height="0.6"/>
	</g>
</g>
</svg>
