<svg version="1.1" id="Layer_1" xmlns="http://www.w3.org/2000/svg" xmlns:xlink="http://www.w3.org/1999/xlink" x="0" y="0" width="190.3" height="190.3" viewBox="0 0 190.3 190.3" xml:space="preserve" enable-background="new 0 0 190.3 190.3">
  <style type="text/css">
    
	.st0{fill:#B02C5F;}

  </style>
  <path class="st0" d="M190.3 95.2C190.3 42.7 147.6 0 95.2 0 42.7 0 0 42.7 0 95.2s42.7 95.2 95.2 95.2C147.6 190.3 190.3 147.6 190.3 95.2zM176.1 95.2c0 44.8-36.1 80.9-80.9 80.9s-80.9-36.1-80.9-80.9 36.1-80.9 80.9-80.9C139.9 14.3 176.1 50.4 176.1 95.2zM159.4 95.2c-0.1-1.7-0.8-3.7-1.9-4.9l-38.1-40.4c-2.6-2.3-7.5-3.3-10.4-0.6 -2.8 2.6-2.8 7.8 0.1 10.4L135.8 88H38.1c-3.9 0-7.1 3.2-7.1 7.1s3.2 7.1 7.1 7.1h97.8l-26.8 28.4c-2.4 2.4-2.9 7.7-0.1 10.4 2.8 2.7 7.9 1.8 10.4-0.6l38.1-40.4C158.8 98.7 159.4 97.1 159.4 95.2L159.4 95.2z"/>
</svg>
