<svg id="dae41031-fa1f-457a-bcc1-8ecc5ec835ef" data-name="Layer 1" xmlns="http://www.w3.org/2000/svg" width="130" height="22.7" viewBox="0 0 130 22.7"><title>logo-icetex-small</title><path d="M109.12,17.58V13.65H113a17.26,17.26,0,0,1,4.57-4.83,14.58,14.58,0,0,1-2-3.68h-6.38V.66h10.73c-.25,3,.52,4.48,1.54,5.59,2.16-1.3,3.59-3.47,5-5.61H131c-1.84,3.28-4,6.37-7.09,8.26l.15.23c2.39,3.93,2,8.82.53,14.21h-4.67c1.6-3.88,2.19-8.59-.16-11.68a15.74,15.74,0,0,0-5,6h-3.06v-.07Zm0-6.27h.66V7.24h-.66ZM38.22.66h4.35v17H38.22V.66Zm70.91,0V5.14h-8a1.18,1.18,0,0,0-.42.91V7.24h8.42v4.07h-8.42V12.5a1.11,1.11,0,0,0,1.07,1.15h7.35v3.93h-7.42c-2.86,0-5.2-2.93-5.2-6.5V5.14H89.12V17.55H84.64V5.14H66.22a.9.9,0,0,0-.9.9V7.28h8.91v4.07H65.33v2h12v4.35H49.09a5.26,5.26,0,0,1-5.24-5.24V5.91A5.26,5.26,0,0,1,49.09.66H60V5H49.47a1.38,1.38,0,0,0-1.41,1.34V12a1.38,1.38,0,0,0,1.41,1.34H61a4.91,4.91,0,0,1-.06-.79V5.8A5.27,5.27,0,0,1,66.35.66Z" transform="translate(-1 -0.65)" fill="#e0e3e9" fill-rule="evenodd"/><path d="M115.22,22.1v-.37a.66.66,0,0,0,.22-.13,1.19,1.19,0,0,0,.31-.49,1.94,1.94,0,0,0,.13-.71,1,1,0,0,0-.15-.6.45.45,0,0,0-.37-.2l-.14,0v-.37h.15a.78.78,0,0,1,.63.3,1.31,1.31,0,0,1,.25.86,2.32,2.32,0,0,1-.17.91,1.4,1.4,0,0,1-.44.6A1,1,0,0,1,115.22,22.1Zm0-2.85v.37a.66.66,0,0,0-.23.13,1.09,1.09,0,0,0-.3.49,2.09,2.09,0,0,0-.12.72,1,1,0,0,0,.15.59.45.45,0,0,0,.37.2l.14,0v.37h-.14a.8.8,0,0,1-.64-.3,1.21,1.21,0,0,1-.25-.81,2.31,2.31,0,0,1,.32-1.25,1,1,0,0,1,.71-.5Zm-4.75,2.8v-.34l.16-.08a.82.82,0,0,0,.27-.33,2.34,2.34,0,0,0,.17-.65,1.52,1.52,0,0,1-.46.1l-.13,0v-.35h0l.43,0a.71.71,0,0,0,.2-.06,1.47,1.47,0,0,0,0-.32.35.35,0,0,0-.12-.28.52.52,0,0,0-.35-.1.66.66,0,0,0-.22,0v-.39l.25,0a.84.84,0,0,1,.59.2.67.67,0,0,1,.22.51,3.08,3.08,0,0,1-.05.51l-.12.68a3.17,3.17,0,0,0-.06.53,2.21,2.21,0,0,0,0,.37H111a1.88,1.88,0,0,1,0-.34,1.43,1.43,0,0,1-.38.31l-.07,0Zm1.32,0,.45-2.74h.33l-.08.48a1.73,1.73,0,0,1,.43-.42.71.71,0,0,1,.37-.12.52.52,0,0,1,.41.18.72.72,0,0,1,.16.5,3.24,3.24,0,0,1-.06.47l-.27,1.66h-.37l.29-1.74a2.59,2.59,0,0,0,0-.38.31.31,0,0,0-.08-.22.29.29,0,0,0-.21-.08.66.66,0,0,0-.5.26,1.83,1.83,0,0,0-.33.89l-.21,1.28Zm-1.32-2.78v.39a.62.62,0,0,0-.38.47l-.37,0a1,1,0,0,1,.75-.82Zm0,1.16v.35a1.34,1.34,0,0,0-.33.08.43.43,0,0,0-.2.17.51.51,0,0,0-.07.27.46.46,0,0,0,.11.33.39.39,0,0,0,.3.12.55.55,0,0,0,.18,0v.34a.79.79,0,0,1-.29.06.62.62,0,0,1-.48-.21.85.85,0,0,1-.19-.58.92.92,0,0,1,.11-.46.74.74,0,0,1,.31-.3,1.36,1.36,0,0,1,.55-.12Zm-3.13,1.67v-.39a.58.58,0,0,0,.19-.11,1.19,1.19,0,0,0,.28-.5,2.19,2.19,0,0,0,.13-.72,1,1,0,0,0-.13-.57.4.4,0,0,0-.34-.19l-.13,0v-.34a.56.56,0,0,1,.24-.06.62.62,0,0,1,.51.28,1.41,1.41,0,0,1,.21.84,2.49,2.49,0,0,1-.17.93,1.5,1.5,0,0,1-.41.62.84.84,0,0,1-.38.19ZM109,18.8l.09-.53h.37l-.09.53Zm-.54,3.26.46-2.74h.37l-.45,2.74Zm-1.17-2.75v.34a.59.59,0,0,0-.22.16,1.49,1.49,0,0,0-.29.61,2,2,0,0,0-.08.51V21a.87.87,0,0,0,.14.53.41.41,0,0,0,.34.18l.13,0v.39h-.1q-.45,0-.63-.58l-.09.52h-.32l.63-3.79h.37L107,19.62a1.3,1.3,0,0,1,.32-.29l0,0Zm-5.87,2.8v-.37a.66.66,0,0,0,.22-.13,1.19,1.19,0,0,0,.31-.49,1.94,1.94,0,0,0,.13-.71,1,1,0,0,0-.15-.6.45.45,0,0,0-.37-.2l-.14,0v-.37h.15a.78.78,0,0,1,.63.3,1.31,1.31,0,0,1,.25.86,2.32,2.32,0,0,1-.17.91,1.4,1.4,0,0,1-.44.6,1,1,0,0,1-.42.19Zm1.23-.05.45-2.74h.37l-.08.45a1.58,1.58,0,0,1,.38-.41.63.63,0,0,1,.35-.1.47.47,0,0,1,.34.13.67.67,0,0,1,.18.38,1.34,1.34,0,0,1,.35-.39.68.68,0,0,1,.39-.13.52.52,0,0,1,.4.16.66.66,0,0,1,.14.46,2.84,2.84,0,0,1,0,.42l-.29,1.77h-.37l.3-1.81a2.25,2.25,0,0,0,0-.32.3.3,0,0,0-.07-.21.25.25,0,0,0-.19-.07.57.57,0,0,0-.32.12.83.83,0,0,0-.27.32,2.51,2.51,0,0,0-.18.65l-.22,1.33H104l.31-1.85a1.86,1.86,0,0,0,0-.27.32.32,0,0,0-.07-.22.21.21,0,0,0-.17-.08.62.62,0,0,0-.47.26,1.81,1.81,0,0,0-.32.86l-.22,1.3Zm-1.23-2.8v.37a.66.66,0,0,0-.23.13,1.09,1.09,0,0,0-.3.49,2.09,2.09,0,0,0-.12.72,1,1,0,0,0,.15.59.45.45,0,0,0,.37.2l.14,0v.37h-.14a.8.8,0,0,1-.64-.3,1.21,1.21,0,0,1-.25-.81,2.31,2.31,0,0,1,.32-1.25,1,1,0,0,1,.71-.5ZM98.2,22.1v-.37a.66.66,0,0,0,.22-.13,1.19,1.19,0,0,0,.31-.49,1.94,1.94,0,0,0,.13-.71,1,1,0,0,0-.15-.6.45.45,0,0,0-.37-.2l-.14,0v-.37h.15a.78.78,0,0,1,.63.3,1.31,1.31,0,0,1,.25.86,2.32,2.32,0,0,1-.17.91,1.4,1.4,0,0,1-.44.6,1,1,0,0,1-.42.19Zm1.2-.05.63-3.79h.37l-.63,3.79Zm-1.2-2.8v.37a.66.66,0,0,0-.23.13,1.09,1.09,0,0,0-.3.49,2.09,2.09,0,0,0-.12.72,1,1,0,0,0,.15.59.45.45,0,0,0,.37.2l.14,0v.37h-.14a.8.8,0,0,1-.64-.3,1.21,1.21,0,0,1-.25-.81,2.31,2.31,0,0,1,.32-1.25,1,1,0,0,1,.71-.5ZM90.5,22.1v-.37a.66.66,0,0,0,.22-.13,1.19,1.19,0,0,0,.31-.49,1.94,1.94,0,0,0,.13-.71,1,1,0,0,0-.15-.6.45.45,0,0,0-.37-.2l-.14,0v-.37h.15a.78.78,0,0,1,.63.3,1.31,1.31,0,0,1,.25.86,2.32,2.32,0,0,1-.17.91,1.4,1.4,0,0,1-.44.6,1,1,0,0,1-.42.19Zm1.26-1,.37,0a.74.74,0,0,0,.14.5.5.5,0,0,0,.39.16.52.52,0,0,0,.36-.12.39.39,0,0,0,.13-.3.38.38,0,0,0-.08-.24,1.28,1.28,0,0,0-.37-.26,2.52,2.52,0,0,1-.43-.27.64.64,0,0,1-.16-.23.77.77,0,0,1-.06-.3.78.78,0,0,1,.21-.57.75.75,0,0,1,.56-.22.82.82,0,0,1,.61.23.9.9,0,0,1,.23.64l-.36,0a.57.57,0,0,0-.14-.4.49.49,0,0,0-.37-.14.41.41,0,0,0-.29.1.33.33,0,0,0,0,.45,1.2,1.2,0,0,0,.34.23,2.1,2.1,0,0,1,.54.37.8.8,0,0,1,.17.52.82.82,0,0,1-.23.59,1,1,0,0,1-1.3,0,1,1,0,0,1-.24-.7v-.05Zm4.74-.06.37,0a1.63,1.63,0,0,1-.4.76.82.82,0,0,1-.58.25.7.7,0,0,1-.57-.28,1.28,1.28,0,0,1-.23-.82,2.62,2.62,0,0,1,.17-1,1.4,1.4,0,0,1,.42-.62.91.91,0,0,1,.56-.19.69.69,0,0,1,.55.24,1,1,0,0,1,.21.67l-.36,0a.62.62,0,0,0-.12-.41.38.38,0,0,0-.3-.14.53.53,0,0,0-.36.14,1.1,1.1,0,0,0-.27.5,2.66,2.66,0,0,0-.12.81.84.84,0,0,0,.13.5.37.37,0,0,0,.3.17.48.48,0,0,0,.34-.17A1.19,1.19,0,0,0,96.5,21.05Zm-6-1.8v.37a.66.66,0,0,0-.23.13,1.09,1.09,0,0,0-.3.49,2.09,2.09,0,0,0-.12.72,1,1,0,0,0,.15.59.45.45,0,0,0,.37.2l.14,0v.37h-.14a.8.8,0,0,1-.64-.3,1.21,1.21,0,0,1-.25-.81,2.31,2.31,0,0,1,.32-1.25,1,1,0,0,1,.71-.5Zm-4.4,2.83v-.4a.72.72,0,0,0,.18-.12,1,1,0,0,0,.29-.46l.36,0a1.31,1.31,0,0,1-.42.7.92.92,0,0,1-.41.23Zm0-1.29v-.36h.61v-.1a.9.9,0,0,0-.14-.55.43.43,0,0,0-.36-.18H86.1v-.37h.11a.75.75,0,0,1,.62.3,1.31,1.31,0,0,1,.24.84,3.29,3.29,0,0,1,0,.41Zm2.34,1.26.63-3.79h.37l-.63,3.79Zm-2.34-2.8v.37a.63.63,0,0,0-.32.19,1.33,1.33,0,0,0-.29.62h.61v.36h-.67c0,.06,0,.1,0,.15a1,1,0,0,0,.14.59.41.41,0,0,0,.34.2.48.48,0,0,0,.19,0v.4l-.2,0a.75.75,0,0,1-.43-.13.9.9,0,0,1-.31-.4A1.58,1.58,0,0,1,85,21a2.32,2.32,0,0,1,.18-.9,1.45,1.45,0,0,1,.43-.61.91.91,0,0,1,.45-.19Zm-2.42,2.8v-.34a.71.71,0,0,0,.32-.31,2,2,0,0,0,.27-1.08.82.82,0,0,0-.14-.51.41.41,0,0,0-.33-.18l-.12,0v-.4h.1a.66.66,0,0,1,.61.49l.24-1.48H85l-.63,3.79H84l.06-.4A1.15,1.15,0,0,1,83.68,22.06Zm0-2.8v.4a.56.56,0,0,0-.23.15,1.25,1.25,0,0,0-.26.52,2.14,2.14,0,0,0-.1.58V21a1,1,0,0,0,.15.56.36.36,0,0,0,.31.17l.13,0v.34a.55.55,0,0,1-.24.06.62.62,0,0,1-.51-.28,1.41,1.41,0,0,1-.21-.84,2.47,2.47,0,0,1,.17-.92,1.48,1.48,0,0,1,.41-.62.85.85,0,0,1,.38-.19ZM80.24,22.1v-.37a.66.66,0,0,0,.22-.13,1.19,1.19,0,0,0,.31-.49,1.94,1.94,0,0,0,.13-.71,1,1,0,0,0-.15-.6.45.45,0,0,0-.37-.2l-.14,0v-.37h.15a.78.78,0,0,1,.63.3,1.31,1.31,0,0,1,.25.86,2.32,2.32,0,0,1-.17.91,1.4,1.4,0,0,1-.44.6A1,1,0,0,1,80.24,22.1Zm0-2.85v.37a.66.66,0,0,0-.23.13,1.09,1.09,0,0,0-.3.49,2.09,2.09,0,0,0-.12.72,1,1,0,0,0,.15.59.45.45,0,0,0,.37.2l.14,0v.37H80.1a.8.8,0,0,1-.64-.3,1.21,1.21,0,0,1-.25-.81,2.31,2.31,0,0,1,.32-1.25,1,1,0,0,1,.71-.5Zm-5.8,2.83v-.4a.72.72,0,0,0,.18-.12,1,1,0,0,0,.29-.46l.36,0a1.31,1.31,0,0,1-.42.7.92.92,0,0,1-.41.23Zm0-1.29v-.36H75v-.1a.9.9,0,0,0-.14-.55.43.43,0,0,0-.36-.18h-.11v-.37h.11a.75.75,0,0,1,.62.3,1.31,1.31,0,0,1,.24.84,3.29,3.29,0,0,1,0,.41Zm1.2,1.26.45-2.74h.34l-.08.48a1.74,1.74,0,0,1,.43-.42.71.71,0,0,1,.37-.12.52.52,0,0,1,.41.18.72.72,0,0,1,.16.5,3.23,3.23,0,0,1-.06.47l-.27,1.66H77l.29-1.74a2.6,2.6,0,0,0,0-.38.31.31,0,0,0-.08-.22.29.29,0,0,0-.21-.08.66.66,0,0,0-.5.26,1.83,1.83,0,0,0-.33.89L76,22.05Zm3.2-.38-.06.38a.83.83,0,0,1-.26,0,.46.46,0,0,1-.33-.11.4.4,0,0,1-.12-.31,3.48,3.48,0,0,1,.06-.42l.26-1.59h-.29l.06-.36h.29l.11-.67.42-.32-.17,1h.36l-.06.36h-.36l-.25,1.52c0,.19,0,.31,0,.34a.19.19,0,0,0,0,.13.16.16,0,0,0,.12,0A.71.71,0,0,0,78.84,21.67Zm-4.4-2.42v.37a.63.63,0,0,0-.32.19,1.33,1.33,0,0,0-.29.62h.61v.36h-.67c0,.06,0,.1,0,.15a1,1,0,0,0,.14.59.41.41,0,0,0,.34.2.48.48,0,0,0,.19,0v.4l-.2,0a.75.75,0,0,1-.43-.13.9.9,0,0,1-.31-.4,1.58,1.58,0,0,1-.12-.63,2.32,2.32,0,0,1,.18-.9,1.45,1.45,0,0,1,.43-.61.91.91,0,0,1,.45-.19Zm-3.39,2.8v-.34l.16-.08a.82.82,0,0,0,.27-.33,2.34,2.34,0,0,0,.17-.65,1.52,1.52,0,0,1-.46.1l-.13,0v-.35h0l.43,0a.71.71,0,0,0,.2-.06,1.47,1.47,0,0,0,0-.32.35.35,0,0,0-.12-.28.52.52,0,0,0-.35-.1.66.66,0,0,0-.22,0v-.39l.25,0a.84.84,0,0,1,.59.2.67.67,0,0,1,.22.51,3.08,3.08,0,0,1-.05.51l-.12.68a3.17,3.17,0,0,0-.06.53,2.21,2.21,0,0,0,0,.37h-.37a1.88,1.88,0,0,1,0-.34,1.43,1.43,0,0,1-.38.31l-.07,0Zm1.29,0L73,18.27h.37l-.63,3.79Zm-1.29-2.78v.39a.62.62,0,0,0-.38.47l-.37,0a1,1,0,0,1,.75-.82Zm0,1.16v.35a1.34,1.34,0,0,0-.33.08.43.43,0,0,0-.2.17.51.51,0,0,0-.07.27.46.46,0,0,0,.11.33.39.39,0,0,0,.3.12.55.55,0,0,0,.18,0v.34a.79.79,0,0,1-.29.06.62.62,0,0,1-.48-.21.85.85,0,0,1-.19-.58.92.92,0,0,1,.11-.46.74.74,0,0,1,.31-.3,1.36,1.36,0,0,1,.55-.12Zm-5.48,1.66v-.4a.72.72,0,0,0,.18-.12,1,1,0,0,0,.29-.46l.36,0a1.31,1.31,0,0,1-.42.7.92.92,0,0,1-.41.23Zm0-1.29v-.36h.61v-.1A.9.9,0,0,0,66,19.8a.43.43,0,0,0-.36-.18h-.11v-.37h.11a.75.75,0,0,1,.62.3,1.31,1.31,0,0,1,.24.84,3.29,3.29,0,0,1,0,.41Zm1.17,1.26.63-3.79h.37l-.63,3.79Zm3-.38-.06.38a.83.83,0,0,1-.26,0,.46.46,0,0,1-.33-.11.4.4,0,0,1-.12-.31,3.49,3.49,0,0,1,.06-.42l.26-1.59H69l.06-.36h.29l.11-.67.42-.32-.17,1h.36l-.06.36h-.36l-.25,1.52c0,.19,0,.31,0,.34a.19.19,0,0,0,0,.13.16.16,0,0,0,.12,0A.71.71,0,0,0,69.75,21.67Zm-4.17-2.42v.37a.63.63,0,0,0-.32.19,1.33,1.33,0,0,0-.29.62h.61v.36h-.67c0,.06,0,.1,0,.15a1,1,0,0,0,.14.59.41.41,0,0,0,.34.2.48.48,0,0,0,.19,0v.4l-.2,0a.75.75,0,0,1-.43-.13.9.9,0,0,1-.31-.4,1.58,1.58,0,0,1-.12-.63,2.32,2.32,0,0,1,.18-.9,1.45,1.45,0,0,1,.43-.61.91.91,0,0,1,.45-.19Zm-5.83,2.84v-.4a.72.72,0,0,0,.18-.12,1,1,0,0,0,.29-.46l.36,0a1.31,1.31,0,0,1-.42.7.92.92,0,0,1-.41.23Zm0-1.29v-.36h.61v-.1a.9.9,0,0,0-.14-.55.43.43,0,0,0-.36-.18h-.11v-.37h.11a.75.75,0,0,1,.62.3,1.31,1.31,0,0,1,.24.84,3.28,3.28,0,0,1,0,.41Zm1.2,1.26.45-2.74h.34l-.08.48a1.73,1.73,0,0,1,.43-.42.71.71,0,0,1,.37-.12.52.52,0,0,1,.41.18.72.72,0,0,1,.16.5,3.23,3.23,0,0,1-.06.47l-.27,1.66h-.37l.29-1.74a2.59,2.59,0,0,0,0-.38.31.31,0,0,0-.08-.22.29.29,0,0,0-.21-.08.66.66,0,0,0-.5.26,1.83,1.83,0,0,0-.33.89l-.21,1.28Zm-1.2-2.8v.37a.63.63,0,0,0-.32.19,1.33,1.33,0,0,0-.29.62h.61v.36h-.67c0,.06,0,.1,0,.15a1,1,0,0,0,.14.59.41.41,0,0,0,.34.2.48.48,0,0,0,.19,0v.4l-.2,0a.75.75,0,0,1-.43-.13.9.9,0,0,1-.31-.4,1.58,1.58,0,0,1-.12-.63,2.32,2.32,0,0,1,.18-.9,1.45,1.45,0,0,1,.43-.61.91.91,0,0,1,.45-.19ZM54.12,22.1v-.37a.66.66,0,0,0,.22-.13,1.19,1.19,0,0,0,.31-.49,1.94,1.94,0,0,0,.13-.71,1,1,0,0,0-.15-.6.45.45,0,0,0-.37-.2l-.14,0v-.37h.15a.78.78,0,0,1,.63.3,1.31,1.31,0,0,1,.25.86,2.32,2.32,0,0,1-.17.91,1.4,1.4,0,0,1-.44.6,1,1,0,0,1-.42.19Zm1.25-1,.37,0a.74.74,0,0,0,.14.5.5.5,0,0,0,.39.16.52.52,0,0,0,.36-.12.39.39,0,0,0,.13-.3.38.38,0,0,0-.08-.24,1.28,1.28,0,0,0-.37-.26,2.51,2.51,0,0,1-.43-.27.64.64,0,0,1-.16-.23.77.77,0,0,1-.06-.3.78.78,0,0,1,.21-.57.75.75,0,0,1,.56-.22.82.82,0,0,1,.61.23.9.9,0,0,1,.23.64l-.36,0a.57.57,0,0,0-.14-.4.49.49,0,0,0-.37-.14.41.41,0,0,0-.29.1.33.33,0,0,0,0,.45,1.2,1.2,0,0,0,.34.23,2.1,2.1,0,0,1,.54.37.8.8,0,0,1,.17.52.82.82,0,0,1-.23.59,1,1,0,0,1-1.3,0,1,1,0,0,1-.24-.7Zm-1.25-1.86v.37a.66.66,0,0,0-.23.13,1.1,1.1,0,0,0-.3.49,2.09,2.09,0,0,0-.12.72,1,1,0,0,0,.15.59.45.45,0,0,0,.37.2l.14,0v.37H54a.8.8,0,0,1-.64-.3,1.21,1.21,0,0,1-.25-.81,2.31,2.31,0,0,1,.32-1.25,1,1,0,0,1,.71-.5Zm-5.51,2.8v-.17L49,19.31h.37l-.45,2.74Zm0-2.58,0-.17h0v.17Zm.51-.68.09-.53h.37l-.09.53Zm.4,3.26L50,19.31h.37l-.08.45a1.58,1.58,0,0,1,.38-.41.63.63,0,0,1,.35-.1.47.47,0,0,1,.34.13.67.67,0,0,1,.18.38,1.34,1.34,0,0,1,.35-.39.68.68,0,0,1,.39-.13.52.52,0,0,1,.4.16.66.66,0,0,1,.14.46,2.83,2.83,0,0,1,0,.42l-.29,1.77h-.37l.3-1.81a2.24,2.24,0,0,0,0-.32.3.3,0,0,0-.07-.21.25.25,0,0,0-.19-.07.57.57,0,0,0-.32.12.83.83,0,0,0-.27.32,2.52,2.52,0,0,0-.18.65l-.22,1.33H50.8l.31-1.85a1.86,1.86,0,0,0,0-.27.32.32,0,0,0-.07-.22.21.21,0,0,0-.17-.08.62.62,0,0,0-.47.26,1.81,1.81,0,0,0-.32.86l-.22,1.3Zm-.91-2.74v.17l0,.19h-.36L48,21.19c0,.19,0,.31,0,.34a.19.19,0,0,0,0,.13.16.16,0,0,0,.12,0,.71.71,0,0,0,.22,0l-.06.38a.83.83,0,0,1-.26,0,.46.46,0,0,1-.33-.11l-.06-.07v-.71l.25-1.54h-.25v-.14l.06-.19-.06,0v.12l0-.12h.29l.11-.67.42-.32-.17,1Zm0,2.58,0,.17h0Zm-1-2.58v.12l0,.24h0v-.14l-.09.25a.3.3,0,0,0-.21-.09.55.55,0,0,0-.41.28,2.42,2.42,0,0,0-.32,1l-.19,1.1H46l.45-2.74h.33l-.09.56q.33-.62.66-.62a.46.46,0,0,1,.21.06Zm0,1.9v.06a3.48,3.48,0,0,0-.06.42.42.42,0,0,0,.06.24v-.71Zm-2.76.88v-.4a.72.72,0,0,0,.18-.12,1,1,0,0,0,.29-.46l.36,0a1.31,1.31,0,0,1-.42.7.92.92,0,0,1-.41.23Zm0-1.29v-.36h.61v-.1a.9.9,0,0,0-.14-.55.43.43,0,0,0-.36-.18h-.11v-.37h.11a.75.75,0,0,1,.62.3,1.31,1.31,0,0,1,.24.84,3.28,3.28,0,0,1,0,.41Zm0-1.54v.37a.63.63,0,0,0-.32.19,1.33,1.33,0,0,0-.29.62h.61v.36h-.67c0,.06,0,.1,0,.15a1,1,0,0,0,.14.59.41.41,0,0,0,.34.2.48.48,0,0,0,.19,0v.4l-.2,0A.75.75,0,0,1,44.2,22a.9.9,0,0,1-.31-.4,1.39,1.39,0,0,1-.1-.39v-.5a2.26,2.26,0,0,1,.16-.64,1.45,1.45,0,0,1,.43-.61.91.91,0,0,1,.45-.19Zm-1,.09v0h0ZM38.2,22.05l.63-3.79h.4l-.63,3.79Zm5.59-2.74v0l-1.23,2.71h-.41l-.36-2.74h.36l.19,1.51q0,.26.08.81c.07-.2.16-.42.27-.67l.72-1.65Zm0,1.38a2.52,2.52,0,0,0,0,.26,2,2,0,0,0,0,.24v-.5Zm-4.52,1.36.45-2.74h.34l-.08.48a1.74,1.74,0,0,1,.43-.42.71.71,0,0,1,.37-.12.52.52,0,0,1,.41.18.72.72,0,0,1,.16.5,3.23,3.23,0,0,1-.06.47L41,22.05h-.37l.29-1.74a2.6,2.6,0,0,0,0-.38.31.31,0,0,0-.08-.22.29.29,0,0,0-.21-.08.66.66,0,0,0-.5.26,1.83,1.83,0,0,0-.33.89l-.21,1.28Z" transform="translate(-1 -0.65)" fill="#e0e3e9"/><path d="M116.47,21.12l.37,0a.74.74,0,0,0,.14.5.5.5,0,0,0,.39.16.52.52,0,0,0,.36-.12.39.39,0,0,0,.13-.3.37.37,0,0,0-.08-.24,1.28,1.28,0,0,0-.37-.26,2.52,2.52,0,0,1-.43-.27.64.64,0,0,1-.16-.23.77.77,0,0,1-.06-.3.78.78,0,0,1,.21-.57.75.75,0,0,1,.56-.22.82.82,0,0,1,.61.23.9.9,0,0,1,.23.64l-.36,0a.57.57,0,0,0-.14-.4.49.49,0,0,0-.37-.14.41.41,0,0,0-.29.1.33.33,0,0,0,0,.45,1.2,1.2,0,0,0,.34.23,2.1,2.1,0,0,1,.54.37.8.8,0,0,1,.17.52.82.82,0,0,1-.23.59,1,1,0,0,1-1.3,0,1,1,0,0,1-.24-.7Z" transform="translate(-1 -0.65)" fill="#e0e3e9"/><path d="M5.22.66H36.55V22.15H5.22A4,4,0,0,1,1,18.35V4.47A4,4,0,0,1,5.22.66Z" transform="translate(-1 -0.65)" fill="#e0e3e9" fill-rule="evenodd"/><rect x="5.81" y="5.5" width="0.67" height="0.67" fill="#001c7e"/><rect x="5.81" y="6.25" width="0.67" height="0.67" fill="#001c7e"/><rect x="5.05" y="6.25" width="0.67" height="0.67" fill="#001c7e"/><rect x="4.29" y="6.25" width="0.67" height="0.67" fill="#001c7e"/><rect x="5.06" y="7" width="0.67" height="0.67" fill="#001c7e"/><rect x="4.29" y="7" width="0.67" height="0.67" fill="#001c7e"/><rect x="5.24" y="7.75" width="0.67" height="0.67" fill="#001c7e"/><rect x="4.47" y="7.75" width="0.67" height="0.67" fill="#001c7e"/><rect x="3.69" y="7.75" width="0.67" height="0.67" fill="#001c7e"/><rect x="5.24" y="8.5" width="0.67" height="0.67" fill="#001c7e"/><rect x="4.47" y="8.5" width="0.67" height="0.67" fill="#001c7e"/><rect x="3.69" y="8.5" width="0.67" height="0.67" fill="#001c7e"/><rect x="3.65" y="9.25" width="0.67" height="0.67" fill="#001c7e"/><rect x="2.88" y="9.25" width="0.67" height="0.67" fill="#001c7e"/><rect x="3.65" y="10.01" width="0.67" height="0.67" fill="#001c7e"/><rect x="2.88" y="10.01" width="0.67" height="0.67" fill="#001c7e"/><rect x="4.43" y="10.76" width="0.67" height="0.67" fill="#001c7e"/><rect x="3.66" y="10.76" width="0.67" height="0.67" fill="#001c7e"/><rect x="2.88" y="10.76" width="0.67" height="0.67" fill="#001c7e"/><rect x="4.4" y="11.51" width="0.67" height="0.67" fill="#001c7e"/><rect x="3.63" y="11.51" width="0.67" height="0.67" fill="#001c7e"/><rect x="4.4" y="12.26" width="0.67" height="0.67" fill="#001c7e"/><rect x="3.63" y="12.26" width="0.67" height="0.67" fill="#001c7e"/><rect x="5.18" y="13.01" width="0.67" height="0.67" fill="#001c7e"/><rect x="4.4" y="13.01" width="0.67" height="0.67" fill="#001c7e"/><rect x="3.63" y="13.01" width="0.67" height="0.67" fill="#001c7e"/><rect x="5.18" y="13.76" width="0.67" height="0.67" fill="#001c7e"/><rect x="6.62" y="15.07" width="0.67" height="0.67" fill="#001c7e"/><rect x="5.85" y="15.07" width="0.67" height="0.67" fill="#001c7e"/><rect x="5.07" y="15.07" width="0.67" height="0.67" fill="#001c7e"/><rect x="8.09" y="15.88" width="0.67" height="0.67" fill="#001c7e"/><rect x="7.31" y="15.88" width="0.67" height="0.67" fill="#001c7e"/><rect x="6.54" y="15.88" width="0.67" height="0.67" fill="#001c7e"/><rect x="8.1" y="16.7" width="0.67" height="0.67" fill="#001c7e"/><rect x="7.33" y="16.7" width="0.67" height="0.67" fill="#001c7e"/><rect x="10.44" y="4.69" width="0.67" height="0.67" fill="#001c7e"/><rect x="9.66" y="4.69" width="0.67" height="0.67" fill="#001c7e"/><rect x="8.89" y="4.69" width="0.67" height="0.67" fill="#001c7e"/><rect x="12" y="4.69" width="0.67" height="0.67" fill="#001c7e"/><rect x="11.22" y="4.69" width="0.67" height="0.67" fill="#001c7e"/><rect x="14.34" y="4.69" width="0.67" height="0.67" fill="#001c7e"/><rect x="13.56" y="4.69" width="0.67" height="0.67" fill="#001c7e"/><rect x="12.78" y="4.69" width="0.67" height="0.67" fill="#001c7e"/><rect x="15.89" y="4.69" width="0.67" height="0.67" fill="#001c7e"/><rect x="15.12" y="4.69" width="0.67" height="0.67" fill="#001c7e"/><rect x="18.23" y="4.69" width="0.67" height="0.67" fill="#001c7e"/><rect x="17.45" y="4.69" width="0.67" height="0.67" fill="#001c7e"/><rect x="16.67" y="4.69" width="0.67" height="0.67" fill="#001c7e"/><rect x="19.79" y="4.69" width="0.67" height="0.67" fill="#001c7e"/><rect x="19.01" y="4.69" width="0.67" height="0.67" fill="#001c7e"/><rect x="14.92" y="5.46" width="0.67" height="0.67" fill="#001c7e"/><rect x="14.15" y="5.46" width="0.67" height="0.67" fill="#001c7e"/><rect x="13.38" y="5.46" width="0.67" height="0.67" fill="#001c7e"/><rect x="16.46" y="5.46" width="0.67" height="0.67" fill="#001c7e"/><rect x="15.69" y="5.46" width="0.67" height="0.67" fill="#001c7e"/><rect x="18.77" y="5.46" width="0.67" height="0.67" fill="#001c7e"/><rect x="18" y="5.46" width="0.67" height="0.67" fill="#001c7e"/><rect x="17.23" y="5.46" width="0.67" height="0.67" fill="#001c7e"/><rect x="20.31" y="5.46" width="0.67" height="0.67" fill="#001c7e"/><rect x="19.54" y="5.46" width="0.67" height="0.67" fill="#001c7e"/><rect x="14.92" y="6.22" width="0.67" height="0.67" fill="#001c7e"/><rect x="14.15" y="6.22" width="0.67" height="0.67" fill="#001c7e"/><rect x="13.38" y="6.22" width="0.67" height="0.67" fill="#001c7e"/><rect x="16.46" y="6.22" width="0.67" height="0.67" fill="#001c7e"/><rect x="15.69" y="6.22" width="0.67" height="0.67" fill="#001c7e"/><rect x="18.77" y="6.22" width="0.67" height="0.67" fill="#001c7e"/><rect x="18" y="6.22" width="0.67" height="0.67" fill="#001c7e"/><rect x="17.23" y="6.22" width="0.67" height="0.67" fill="#001c7e"/><rect x="20.31" y="6.22" width="0.67" height="0.67" fill="#001c7e"/><rect x="19.54" y="6.22" width="0.67" height="0.67" fill="#001c7e"/><rect x="15.57" y="6.98" width="0.67" height="0.67" fill="#001c7e"/><rect x="14.8" y="6.98" width="0.67" height="0.67" fill="#001c7e"/><rect x="14.03" y="6.98" width="0.67" height="0.67" fill="#001c7e"/><rect x="17.11" y="6.98" width="0.67" height="0.67" fill="#001c7e"/><rect x="16.34" y="6.98" width="0.67" height="0.67" fill="#001c7e"/><rect x="18.65" y="6.98" width="0.67" height="0.67" fill="#001c7e"/><rect x="17.88" y="6.98" width="0.67" height="0.67" fill="#001c7e"/><rect x="14.05" y="7.75" width="0.67" height="0.67" fill="#001c7e"/><rect x="13.28" y="7.75" width="0.67" height="0.67" fill="#001c7e"/><rect x="12.51" y="7.75" width="0.67" height="0.67" fill="#001c7e"/><rect x="15.6" y="7.75" width="0.67" height="0.67" fill="#001c7e"/><rect x="14.82" y="7.75" width="0.67" height="0.67" fill="#001c7e"/><rect x="17.91" y="7.75" width="0.67" height="0.67" fill="#001c7e"/><rect x="17.14" y="7.75" width="0.67" height="0.67" fill="#001c7e"/><rect x="16.37" y="7.75" width="0.67" height="0.67" fill="#001c7e"/><rect x="14.19" y="8.51" width="0.67" height="0.67" fill="#001c7e"/><rect x="13.42" y="8.51" width="0.67" height="0.67" fill="#001c7e"/><rect x="15.73" y="8.51" width="0.67" height="0.67" fill="#001c7e"/><rect x="14.96" y="8.51" width="0.67" height="0.67" fill="#001c7e"/><rect x="18.04" y="8.51" width="0.67" height="0.67" fill="#001c7e"/><rect x="17.27" y="8.51" width="0.67" height="0.67" fill="#001c7e"/><rect x="16.5" y="8.51" width="0.67" height="0.67" fill="#001c7e"/><rect x="14.98" y="9.28" width="0.67" height="0.67" fill="#001c7e"/><rect x="14.21" y="9.28" width="0.67" height="0.67" fill="#001c7e"/><rect x="16.53" y="9.28" width="0.67" height="0.67" fill="#001c7e"/><rect x="15.76" y="9.28" width="0.67" height="0.67" fill="#001c7e"/><rect x="17.3" y="9.28" width="0.67" height="0.67" fill="#001c7e"/><rect x="14.98" y="10.04" width="0.67" height="0.67" fill="#001c7e"/><rect x="14.21" y="10.04" width="0.67" height="0.67" fill="#001c7e"/><rect x="16.53" y="10.04" width="0.67" height="0.67" fill="#001c7e"/><rect x="15.76" y="10.04" width="0.67" height="0.67" fill="#001c7e"/><rect x="18.84" y="10.04" width="0.67" height="0.67" fill="#001c7e"/><rect x="18.07" y="10.04" width="0.67" height="0.67" fill="#001c7e"/><rect x="17.3" y="10.04" width="0.67" height="0.67" fill="#001c7e"/><rect x="17.84" y="10.81" width="0.67" height="0.67" fill="#001c7e"/><rect x="17.07" y="10.81" width="0.67" height="0.67" fill="#001c7e"/><rect x="19.38" y="10.81" width="0.67" height="0.67" fill="#001c7e"/><rect x="18.61" y="10.81" width="0.67" height="0.67" fill="#001c7e"/><rect x="20.15" y="10.81" width="0.67" height="0.67" fill="#001c7e"/><rect x="17.84" y="11.57" width="0.67" height="0.67" fill="#001c7e"/><rect x="17.07" y="11.57" width="0.67" height="0.67" fill="#001c7e"/><rect x="19.38" y="11.57" width="0.67" height="0.67" fill="#001c7e"/><rect x="18.61" y="11.57" width="0.67" height="0.67" fill="#001c7e"/><rect x="20.15" y="11.57" width="0.67" height="0.67" fill="#001c7e"/><rect x="17.84" y="12.34" width="0.67" height="0.67" fill="#001c7e"/><rect x="17.07" y="12.34" width="0.67" height="0.67" fill="#001c7e"/><rect x="19.38" y="12.34" width="0.67" height="0.67" fill="#001c7e"/><rect x="18.61" y="12.34" width="0.67" height="0.67" fill="#001c7e"/><rect x="21.69" y="12.34" width="0.67" height="0.67" fill="#001c7e"/><rect x="20.92" y="12.34" width="0.67" height="0.67" fill="#001c7e"/><rect x="20.15" y="12.34" width="0.67" height="0.67" fill="#001c7e"/><rect x="18.61" y="13.1" width="0.67" height="0.67" fill="#001c7e"/><rect x="17.84" y="13.1" width="0.67" height="0.67" fill="#001c7e"/><rect x="17.07" y="13.1" width="0.67" height="0.67" fill="#001c7e"/><rect x="20.15" y="13.1" width="0.67" height="0.67" fill="#001c7e"/><rect x="19.38" y="13.1" width="0.67" height="0.67" fill="#001c7e"/><rect x="22.47" y="13.1" width="0.67" height="0.67" fill="#001c7e"/><rect x="21.69" y="13.1" width="0.67" height="0.67" fill="#001c7e"/><rect x="20.92" y="13.1" width="0.67" height="0.67" fill="#001c7e"/><rect x="18.61" y="13.86" width="0.67" height="0.67" fill="#001c7e"/><rect x="17.84" y="13.86" width="0.67" height="0.67" fill="#001c7e"/><rect x="17.07" y="13.86" width="0.67" height="0.67" fill="#001c7e"/><rect x="20.15" y="13.86" width="0.67" height="0.67" fill="#001c7e"/><rect x="19.38" y="13.86" width="0.67" height="0.67" fill="#001c7e"/><rect x="22.47" y="13.86" width="0.67" height="0.67" fill="#001c7e"/><rect x="21.69" y="13.86" width="0.67" height="0.67" fill="#001c7e"/><rect x="20.92" y="13.86" width="0.67" height="0.67" fill="#001c7e"/><rect x="19.31" y="14.63" width="0.67" height="0.67" fill="#001c7e"/><rect x="18.54" y="14.63" width="0.67" height="0.67" fill="#001c7e"/><rect x="17.77" y="14.63" width="0.67" height="0.67" fill="#001c7e"/><rect x="20.85" y="14.63" width="0.67" height="0.67" fill="#001c7e"/><rect x="20.08" y="14.63" width="0.67" height="0.67" fill="#001c7e"/><rect x="22.39" y="14.63" width="0.67" height="0.67" fill="#001c7e"/><rect x="21.62" y="14.63" width="0.67" height="0.67" fill="#001c7e"/><rect x="19.31" y="15.39" width="0.67" height="0.67" fill="#001c7e"/><rect x="18.54" y="15.39" width="0.67" height="0.67" fill="#001c7e"/><rect x="17.77" y="15.39" width="0.67" height="0.67" fill="#001c7e"/><rect x="20.85" y="15.39" width="0.67" height="0.67" fill="#001c7e"/><rect x="20.08" y="15.39" width="0.67" height="0.67" fill="#001c7e"/><rect x="22.39" y="15.39" width="0.67" height="0.67" fill="#001c7e"/><rect x="21.62" y="15.39" width="0.67" height="0.67" fill="#001c7e"/><rect x="20.07" y="16.16" width="0.67" height="0.67" fill="#001c7e"/><rect x="19.3" y="16.16" width="0.67" height="0.67" fill="#001c7e"/><rect x="18.53" y="16.16" width="0.67" height="0.67" fill="#001c7e"/><rect x="21.62" y="16.16" width="0.67" height="0.67" fill="#001c7e"/><rect x="20.85" y="16.16" width="0.67" height="0.67" fill="#001c7e"/><rect x="20.07" y="16.92" width="0.67" height="0.67" fill="#001c7e"/><rect x="19.3" y="16.92" width="0.67" height="0.67" fill="#001c7e"/><rect x="18.53" y="16.92" width="0.67" height="0.67" fill="#001c7e"/><rect x="19.3" y="17.69" width="0.67" height="0.67" fill="#001c7e"/><rect x="18.53" y="17.69" width="0.67" height="0.67" fill="#001c7e"/><rect x="19.3" y="18.45" width="0.67" height="0.67" fill="#001c7e"/><rect x="18.53" y="18.45" width="0.67" height="0.67" fill="#001c7e"/><rect x="18.53" y="19.21" width="0.67" height="0.67" fill="#001c7e"/><rect x="9.01" y="3.93" width="0.67" height="0.67" fill="#001c7e"/><rect x="8.24" y="3.93" width="0.67" height="0.67" fill="#001c7e"/><rect x="7.47" y="3.93" width="0.67" height="0.67" fill="#001c7e"/><rect x="10.56" y="3.93" width="0.67" height="0.67" fill="#001c7e"/><rect x="9.78" y="3.93" width="0.67" height="0.67" fill="#001c7e"/><rect x="12.87" y="3.93" width="0.67" height="0.67" fill="#001c7e"/><rect x="12.1" y="3.93" width="0.67" height="0.67" fill="#001c7e"/><rect x="11.33" y="3.93" width="0.67" height="0.67" fill="#001c7e"/><rect x="14.41" y="3.93" width="0.67" height="0.67" fill="#001c7e"/><rect x="13.64" y="3.93" width="0.67" height="0.67" fill="#001c7e"/><rect x="16.72" y="3.93" width="0.67" height="0.67" fill="#001c7e"/><rect x="15.95" y="3.93" width="0.67" height="0.67" fill="#001c7e"/><rect x="15.18" y="3.93" width="0.67" height="0.67" fill="#001c7e"/><rect x="20.08" y="3.93" width="0.67" height="0.67" fill="#001c7e"/><rect x="19.31" y="3.93" width="0.67" height="0.67" fill="#001c7e"/><rect x="22.34" y="3.93" width="0.67" height="0.67" fill="#001c7e"/><rect x="21.57" y="3.93" width="0.67" height="0.67" fill="#001c7e"/><rect x="10.3" y="3.16" width="0.67" height="0.67" fill="#001c7e"/><rect x="9.52" y="3.16" width="0.67" height="0.67" fill="#001c7e"/><rect x="8.75" y="3.16" width="0.67" height="0.67" fill="#001c7e"/><rect x="11.84" y="3.16" width="0.67" height="0.67" fill="#001c7e"/><rect x="11.07" y="3.16" width="0.67" height="0.67" fill="#001c7e"/><rect x="20.06" y="3.16" width="0.67" height="0.67" fill="#001c7e"/><rect x="19.29" y="3.16" width="0.67" height="0.67" fill="#001c7e"/><rect x="18.52" y="3.16" width="0.67" height="0.67" fill="#001c7e"/><rect x="21.6" y="3.16" width="0.67" height="0.67" fill="#001c7e"/><rect x="20.83" y="3.16" width="0.67" height="0.67" fill="#001c7e"/><rect x="23.91" y="3.16" width="0.67" height="0.67" fill="#001c7e"/><rect x="23.14" y="3.16" width="0.67" height="0.67" fill="#001c7e"/><rect x="22.37" y="3.16" width="0.67" height="0.67" fill="#001c7e"/><rect x="24.68" y="3.16" width="0.67" height="0.67" fill="#001c7e"/><rect x="21.62" y="2.4" width="0.67" height="0.67" fill="#001c7e"/><rect x="20.85" y="2.4" width="0.67" height="0.67" fill="#001c7e"/><rect x="23.93" y="2.4" width="0.67" height="0.67" fill="#001c7e"/><rect x="23.16" y="2.4" width="0.67" height="0.67" fill="#001c7e"/><rect x="22.39" y="2.4" width="0.67" height="0.67" fill="#001c7e"/><rect x="24.7" y="2.4" width="0.67" height="0.67" fill="#001c7e"/><rect x="28.35" y="3.88" width="0.67" height="0.67" fill="#001c7e"/><rect x="27.58" y="3.88" width="0.67" height="0.67" fill="#001c7e"/><rect x="29.12" y="3.88" width="0.67" height="0.67" fill="#001c7e"/><rect x="26.81" y="4.65" width="0.67" height="0.67" fill="#001c7e"/><rect x="26.04" y="4.65" width="0.67" height="0.67" fill="#001c7e"/><rect x="25.27" y="4.65" width="0.67" height="0.67" fill="#001c7e"/><rect x="28.35" y="4.65" width="0.67" height="0.67" fill="#001c7e"/><rect x="27.58" y="4.65" width="0.67" height="0.67" fill="#001c7e"/><rect x="29.89" y="4.65" width="0.67" height="0.67" fill="#001c7e"/><rect x="29.12" y="4.65" width="0.67" height="0.67" fill="#001c7e"/><rect x="26.81" y="5.42" width="0.67" height="0.67" fill="#001c7e"/><rect x="26.04" y="5.42" width="0.67" height="0.67" fill="#001c7e"/><rect x="25.27" y="5.42" width="0.67" height="0.67" fill="#001c7e"/><rect x="28.35" y="5.42" width="0.67" height="0.67" fill="#001c7e"/><rect x="27.58" y="5.42" width="0.67" height="0.67" fill="#001c7e"/><rect x="30.67" y="5.42" width="0.67" height="0.67" fill="#001c7e"/><rect x="29.89" y="5.42" width="0.67" height="0.67" fill="#001c7e"/><rect x="29.12" y="5.42" width="0.67" height="0.67" fill="#001c7e"/><rect x="26.81" y="6.19" width="0.67" height="0.67" fill="#001c7e"/><rect x="26.04" y="6.19" width="0.67" height="0.67" fill="#001c7e"/><rect x="25.27" y="6.19" width="0.67" height="0.67" fill="#001c7e"/><rect x="28.35" y="6.19" width="0.67" height="0.67" fill="#001c7e"/><rect x="27.58" y="6.19" width="0.67" height="0.67" fill="#001c7e"/><rect x="30.67" y="6.19" width="0.67" height="0.67" fill="#001c7e"/><rect x="29.89" y="6.19" width="0.67" height="0.67" fill="#001c7e"/><rect x="29.12" y="6.19" width="0.67" height="0.67" fill="#001c7e"/><rect x="31.44" y="6.19" width="0.67" height="0.67" fill="#001c7e"/><rect x="26.82" y="6.98" width="0.67" height="0.67" fill="#001c7e"/><rect x="26.04" y="6.98" width="0.67" height="0.67" fill="#001c7e"/><rect x="25.27" y="6.98" width="0.67" height="0.67" fill="#001c7e"/><rect x="28.37" y="6.98" width="0.67" height="0.67" fill="#001c7e"/><rect x="27.59" y="6.98" width="0.67" height="0.67" fill="#001c7e"/><rect x="30.69" y="6.98" width="0.67" height="0.67" fill="#001c7e"/><rect x="29.91" y="6.98" width="0.67" height="0.67" fill="#001c7e"/><rect x="29.14" y="6.98" width="0.67" height="0.67" fill="#001c7e"/><rect x="31.46" y="6.98" width="0.67" height="0.67" fill="#001c7e"/><rect x="32.23" y="6.97" width="0.67" height="0.67" fill="#001c7e"/><rect x="26.82" y="7.76" width="0.67" height="0.67" fill="#001c7e"/><rect x="26.04" y="7.76" width="0.67" height="0.67" fill="#001c7e"/><rect x="25.27" y="7.76" width="0.67" height="0.67" fill="#001c7e"/><rect x="28.37" y="7.76" width="0.67" height="0.67" fill="#001c7e"/><rect x="27.59" y="7.76" width="0.67" height="0.67" fill="#001c7e"/><rect x="30.69" y="7.76" width="0.67" height="0.67" fill="#001c7e"/><rect x="29.91" y="7.76" width="0.67" height="0.67" fill="#001c7e"/><rect x="29.14" y="7.76" width="0.67" height="0.67" fill="#001c7e"/><rect x="31.46" y="7.76" width="0.67" height="0.67" fill="#001c7e"/><rect x="26.82" y="8.54" width="0.67" height="0.67" fill="#001c7e"/><rect x="26.04" y="8.54" width="0.67" height="0.67" fill="#001c7e"/><rect x="25.27" y="8.54" width="0.67" height="0.67" fill="#001c7e"/><rect x="28.37" y="8.54" width="0.67" height="0.67" fill="#001c7e"/><rect x="27.59" y="8.54" width="0.67" height="0.67" fill="#001c7e"/><rect x="30.69" y="8.54" width="0.67" height="0.67" fill="#001c7e"/><rect x="29.91" y="8.54" width="0.67" height="0.67" fill="#001c7e"/><rect x="29.14" y="8.54" width="0.67" height="0.67" fill="#001c7e"/><rect x="31.46" y="8.54" width="0.67" height="0.67" fill="#001c7e"/><rect x="32.23" y="8.53" width="0.67" height="0.67" fill="#001c7e"/><rect x="26.24" y="9.33" width="0.67" height="0.67" fill="#001c7e"/><rect x="25.46" y="9.33" width="0.67" height="0.67" fill="#001c7e"/><rect x="24.69" y="9.33" width="0.67" height="0.67" fill="#001c7e"/><rect x="27.79" y="9.33" width="0.67" height="0.67" fill="#001c7e"/><rect x="27.02" y="9.33" width="0.67" height="0.67" fill="#001c7e"/><rect x="30.12" y="9.33" width="0.67" height="0.67" fill="#001c7e"/><rect x="29.35" y="9.33" width="0.67" height="0.67" fill="#001c7e"/><rect x="28.57" y="9.33" width="0.67" height="0.67" fill="#001c7e"/><rect x="30.9" y="9.33" width="0.67" height="0.67" fill="#001c7e"/><rect x="31.67" y="9.32" width="0.67" height="0.67" fill="#001c7e"/><rect x="32.45" y="9.33" width="0.67" height="0.67" fill="#001c7e"/><rect x="26.24" y="10.12" width="0.67" height="0.67" fill="#001c7e"/><rect x="25.46" y="10.12" width="0.67" height="0.67" fill="#001c7e"/><rect x="24.69" y="10.12" width="0.67" height="0.67" fill="#001c7e"/><rect x="27.79" y="10.12" width="0.67" height="0.67" fill="#001c7e"/><rect x="27.02" y="10.12" width="0.67" height="0.67" fill="#001c7e"/><rect x="30.12" y="10.12" width="0.67" height="0.67" fill="#001c7e"/><rect x="29.35" y="10.12" width="0.67" height="0.67" fill="#001c7e"/><rect x="28.57" y="10.12" width="0.67" height="0.67" fill="#001c7e"/><rect x="30.9" y="10.12" width="0.67" height="0.67" fill="#001c7e"/><rect x="31.67" y="10.1" width="0.67" height="0.67" fill="#001c7e"/><rect x="32.45" y="10.12" width="0.67" height="0.67" fill="#001c7e"/><rect x="27.02" y="10.91" width="0.67" height="0.67" fill="#001c7e"/><rect x="26.25" y="10.91" width="0.67" height="0.67" fill="#001c7e"/><rect x="25.47" y="10.91" width="0.67" height="0.67" fill="#001c7e"/><rect x="28.57" y="10.91" width="0.67" height="0.67" fill="#001c7e"/><rect x="27.8" y="10.91" width="0.67" height="0.67" fill="#001c7e"/><rect x="30.9" y="10.91" width="0.67" height="0.67" fill="#001c7e"/><rect x="30.13" y="10.91" width="0.67" height="0.67" fill="#001c7e"/><rect x="29.35" y="10.91" width="0.67" height="0.67" fill="#001c7e"/><rect x="31.68" y="10.91" width="0.67" height="0.67" fill="#001c7e"/><rect x="32.46" y="10.89" width="0.67" height="0.67" fill="#001c7e"/><rect x="27.8" y="11.68" width="0.67" height="0.67" fill="#001c7e"/><rect x="27.03" y="11.68" width="0.67" height="0.67" fill="#001c7e"/><rect x="26.25" y="11.68" width="0.67" height="0.67" fill="#001c7e"/><rect x="29.36" y="11.68" width="0.67" height="0.67" fill="#001c7e"/><rect x="28.58" y="11.68" width="0.67" height="0.67" fill="#001c7e"/><rect x="31.69" y="11.68" width="0.67" height="0.67" fill="#001c7e"/><rect x="30.91" y="11.68" width="0.67" height="0.67" fill="#001c7e"/><rect x="30.13" y="11.68" width="0.67" height="0.67" fill="#001c7e"/><rect x="32.46" y="11.68" width="0.67" height="0.67" fill="#001c7e"/><rect x="29.18" y="12.45" width="0.67" height="0.67" fill="#001c7e"/><rect x="28.41" y="12.45" width="0.67" height="0.67" fill="#001c7e"/><rect x="27.63" y="12.45" width="0.67" height="0.67" fill="#001c7e"/><rect x="30.74" y="12.45" width="0.67" height="0.67" fill="#001c7e"/><rect x="29.96" y="12.45" width="0.67" height="0.67" fill="#001c7e"/><rect x="32.29" y="12.45" width="0.67" height="0.67" fill="#001c7e"/><rect x="31.51" y="12.45" width="0.67" height="0.67" fill="#001c7e"/><rect x="29.18" y="13.23" width="0.67" height="0.67" fill="#001c7e"/><rect x="28.41" y="13.23" width="0.67" height="0.67" fill="#001c7e"/><rect x="27.63" y="13.23" width="0.67" height="0.67" fill="#001c7e"/><rect x="30.74" y="13.23" width="0.67" height="0.67" fill="#001c7e"/><rect x="29.96" y="13.23" width="0.67" height="0.67" fill="#001c7e"/><rect x="32.29" y="13.23" width="0.67" height="0.67" fill="#001c7e"/><rect x="31.51" y="13.23" width="0.67" height="0.67" fill="#001c7e"/><rect x="29.18" y="14" width="0.67" height="0.67" fill="#001c7e"/><rect x="28.41" y="14" width="0.67" height="0.67" fill="#001c7e"/><rect x="27.63" y="14" width="0.67" height="0.67" fill="#001c7e"/><rect x="30.74" y="14" width="0.67" height="0.67" fill="#001c7e"/><rect x="29.96" y="14" width="0.67" height="0.67" fill="#001c7e"/><rect x="31.51" y="14" width="0.67" height="0.67" fill="#001c7e"/><rect x="29.18" y="14.77" width="0.67" height="0.67" fill="#001c7e"/><rect x="28.41" y="14.77" width="0.67" height="0.67" fill="#001c7e"/><rect x="27.63" y="14.77" width="0.67" height="0.67" fill="#001c7e"/><rect x="30.74" y="14.77" width="0.67" height="0.67" fill="#001c7e"/><rect x="29.96" y="14.77" width="0.67" height="0.67" fill="#001c7e"/><rect x="29.82" y="15.54" width="0.67" height="0.67" fill="#001c7e"/><rect x="29.04" y="15.54" width="0.67" height="0.67" fill="#001c7e"/><rect x="28.26" y="15.54" width="0.67" height="0.67" fill="#001c7e"/><rect x="29.04" y="16.31" width="0.67" height="0.67" fill="#001c7e"/><rect x="28.26" y="16.31" width="0.67" height="0.67" fill="#001c7e"/><rect x="28.26" y="17.09" width="0.67" height="0.67" fill="#001c7e"/></svg>